<svg width="567" height="975" viewBox="0 0 567 975" fill="none" xmlns="http://www.w3.org/2000/svg">
<path d="M567 0H0V973H567V0Z" fill="url(#paint0_linear_793_13903)"/>
<mask id="mask0_793_13903" style="mask-type:alpha" maskUnits="userSpaceOnUse" x="2" y="618" width="341" height="357">
<rect x="2" y="618" width="341" height="357" fill="#D9D9D9"/>
</mask>
<g mask="url(#mask0_793_13903)">
<path style="mix-blend-mode:screen" opacity="0.2" d="M57.4579 1173.03C18.5314 1195.29 -24.4313 1203.93 -65.9578 1200.41L-23.2922 1275C17.0209 1271.53 57.2102 1259.45 94.6509 1238.03C232.726 1159.03 280.616 983.098 201.649 845.048C122.682 706.998 -53.2547 659.082 -191.33 738.05C-228.77 759.469 -259.55 787.995 -283 820.979L-240.334 895.563C-222.307 857.998 -193.063 825.337 -154.161 803.075C-51.9918 744.636 78.184 780.096 136.598 882.241C195.038 984.386 159.603 1114.56 57.4331 1173L57.4579 1173.03Z" fill="url(#paint1_linear_793_13903)"/>
</g>
<path style="mix-blend-mode:screen" opacity="0.2" d="M434.305 82.6386C483.583 82.6386 529.299 97.8525 567 123.852V29.4021C526.652 10.7248 481.703 0.310059 434.305 0.310059C259.48 0.310059 117.78 142.035 117.78 316.834C117.78 491.634 259.48 633.359 434.305 633.359C481.703 633.359 526.652 622.944 567 604.267V509.817C529.299 535.816 483.583 551.03 434.305 551.03C304.949 551.03 200.109 446.165 200.109 316.834C200.109 187.503 304.949 82.6386 434.305 82.6386Z" fill="url(#paint2_linear_793_13903)"/>
<path style="mix-blend-mode:multiply" opacity="0.2" d="M567 187.234V446.435C533.345 480.906 486.337 502.296 434.358 502.296C331.909 502.296 248.897 419.259 248.897 316.835C248.897 214.411 331.909 131.374 434.358 131.374C486.337 131.374 533.345 152.763 567 187.234Z" fill="url(#paint3_linear_793_13903)"/>
<defs>
<linearGradient id="paint0_linear_793_13903" x1="-1.839e-05" y1="15.6161" x2="807.158" y2="682.193" gradientUnits="userSpaceOnUse">
<stop stop-color="#3AB19B"/>
<stop offset="0.5625" stop-color="#3AADAF"/>
<stop offset="1" stop-color="#3AA9BF"/>
</linearGradient>
<linearGradient id="paint1_linear_793_13903" x1="-118.223" y1="697.458" x2="157.591" y2="1179.64" gradientUnits="userSpaceOnUse">
<stop stop-color="#2B388F"/>
<stop offset="1" stop-color="#26A9E0"/>
</linearGradient>
<linearGradient id="paint2_linear_793_13903" x1="342.403" y1="632.196" x2="342.403" y2="21.6838" gradientUnits="userSpaceOnUse">
<stop stop-color="#2B388F"/>
<stop offset="1" stop-color="#26A9E0"/>
</linearGradient>
<linearGradient id="paint3_linear_793_13903" x1="407.948" y1="490.921" x2="557.573" y2="139.246" gradientUnits="userSpaceOnUse">
<stop stop-color="#3AB09D"/>
<stop offset="1" stop-color="#3AA9BE"/>
</linearGradient>
</defs>
</svg>
