<svg
    viewBox="0 0 19 19"
    fill="none"
    xmlns="http://www.w3.org/2000/svg"
  >
    <path d="M0 9.68555V9.31445C0.183073 8.84737 0.529922 8.66479 1.02076 8.70833C1.2157 8.72565 1.41362 8.7113 1.5769 8.7113C2.30128 4.66143 4.66094 2.30078 8.7118 1.57839C8.7118 1.3394 8.71279 1.06875 8.7118 0.798099C8.71081 0.554661 8.7974 0.347344 8.98641 0.195443C9.08438 0.116771 9.20461 0.0643229 9.31445 0H9.68555C10.1526 0.183073 10.3357 0.530417 10.2917 1.02125C10.2743 1.2162 10.2887 1.41411 10.2887 1.5769C14.3401 2.30029 16.6987 4.66242 17.4226 8.71229C17.6606 8.71229 17.9313 8.71279 18.2024 8.71229C18.4533 8.7113 18.663 8.80482 18.8169 9.00125C18.8911 9.09575 18.9401 9.21005 19.0005 9.31495V9.68604C18.8154 10.165 18.4542 10.3347 17.9609 10.2917C17.7719 10.2753 17.5804 10.2892 17.4226 10.2892C16.6987 14.3386 14.3391 16.6992 10.2887 17.4236C10.2887 17.6606 10.2882 17.9317 10.2887 18.2024C10.2892 18.4458 10.2021 18.6527 10.0136 18.8051C9.91563 18.8842 9.79589 18.9367 9.68604 19.001H9.31495C8.84885 18.8174 8.66479 18.4711 8.70883 17.9802C8.72615 17.7853 8.7118 17.5874 8.7118 17.4226C4.66292 16.6997 2.30177 14.3401 1.57839 10.2892C1.34039 10.2892 1.06924 10.2887 0.798594 10.2892C0.555156 10.2902 0.348333 10.2026 0.195937 10.0146C0.116771 9.91661 0.0648177 9.79638 0.000494792 9.68654L0 9.68555ZM15.7655 8.70932C15.4444 5.73909 12.9017 3.47245 10.2932 3.24089C10.1511 3.71193 9.9176 3.94893 9.53513 3.95487C9.05221 3.96229 8.80086 3.67086 8.7024 3.22901C5.53474 3.60852 3.42148 6.31503 3.24534 8.71427C3.69659 8.82659 3.95388 9.08586 3.95141 9.47328C3.95042 9.62518 3.89352 9.78945 3.82078 9.92601C3.70055 10.1521 3.47294 10.2437 3.23297 10.2877C3.55656 13.2767 6.11711 15.529 8.70636 15.7586C8.84391 15.2901 9.08091 15.0506 9.46388 15.0451C9.94779 15.0382 10.1977 15.3301 10.2961 15.7715C13.4984 15.3851 15.5775 12.6533 15.7532 10.2857C15.295 10.1704 15.0451 9.89831 15.0392 9.50841C15.0333 9.11604 15.2881 8.83253 15.7646 8.70982L15.7655 8.70932Z" />
    <path d="M9.61647 13.4578C7.4755 13.5548 5.64032 11.8285 5.54285 9.62568C5.44735 7.46987 7.17071 5.63766 9.38342 5.54216C11.5382 5.44914 13.3655 7.17596 13.458 9.39313C13.5476 11.538 11.8277 13.3579 9.61647 13.4583V13.4578Z" />
  </svg>