<svg width="18" height="18" viewBox="0 0 18 18" fill="none" xmlns="http://www.w3.org/2000/svg">
<path d="M9 0C4.02413 0 0 4.023 0 9C0 13.977 4.02413 18 9 18C13.977 18 18 13.977 18 9C18 4.023 13.977 0 9 0ZM9 1.125C11.0886 1.125 13.0916 1.9547 14.5685 3.43155C16.0453 4.90839 16.875 6.91142 16.875 9C16.875 11.0886 16.0453 13.0916 14.5685 14.5685C13.0916 16.0453 11.0886 16.875 9 16.875C6.91142 16.875 4.90836 16.0453 3.43151 14.5685C1.95466 13.0916 1.125 11.0886 1.125 9C1.125 6.91142 1.95466 4.90839 3.43151 3.43155C4.90836 1.9547 6.91142 1.125 9 1.125ZM7.875 3.375V7.875L8.4375 11.25H9.5625L10.125 7.875V3.375H7.875ZM9 12.375C8.70163 12.375 8.4155 12.4935 8.20452 12.7045C7.99354 12.9155 7.875 13.2016 7.875 13.5C7.875 13.7984 7.99354 14.0845 8.20452 14.2955C8.4155 14.5065 8.70163 14.625 9 14.625C9.29837 14.625 9.5845 14.5065 9.79548 14.2955C10.0065 14.0845 10.125 13.7984 10.125 13.5C10.125 13.2016 10.0065 12.9155 9.79548 12.7045C9.5845 12.4935 9.29837 12.375 9 12.375Z" fill="#EF797A"/>
</svg>
