<svg width="22" height="19" viewBox="0 0 22 19" fill="none" xmlns="http://www.w3.org/2000/svg">
<path d="M21.995 3.81139C21.995 3.56478 21.9711 3.31237 21.9203 3.0722C21.5316 1.22356 20.0866 0.00466183 18.2871 0.00273013C15.8578 0.000154536 13.4292 0.00208623 10.9999 0.00208623C8.55533 0.00208623 6.11136 -0.00370886 3.66679 0.00401793C1.61883 0.0104569 0.00360215 1.7155 0.00176596 3.85904C-7.0221e-05 6.60656 -0.00129434 9.35472 0.00237803 12.1022C0.00543833 14.1698 1.63597 15.9077 3.59824 15.9109C8.53268 15.9193 13.4671 15.9193 18.4016 15.9109C20.3644 15.9077 21.9944 14.1717 21.9974 12.1029C22.0017 9.33927 22.0005 6.57501 21.995 3.81139ZM11.0054 2.21195C12.4744 2.2171 13.6771 3.47657 13.6679 5.00969C13.6587 6.56471 12.5025 7.82031 11.0017 7.8216C9.49974 7.82289 8.33498 6.56342 8.33192 4.99746C8.32948 3.46369 9.54013 2.2068 11.0054 2.21195ZM14.3858 13.6141C14.2873 13.6721 14.16 13.6998 14.0455 13.7004C13.0307 13.7068 12.0153 13.7043 11.0005 13.7043C9.99061 13.7043 8.9801 13.7043 7.9702 13.7043C7.57786 13.7043 7.42362 13.5439 7.42424 13.1351C7.42546 11.5517 7.41934 12.0488 7.43158 10.4654C7.43954 9.43714 8.26521 8.45777 9.23104 8.3013C9.36876 8.27877 9.50892 8.26396 9.64786 8.26331C10.5978 8.26202 11.5483 8.25623 12.4982 8.26975C13.4628 8.28392 14.395 9.15898 14.5376 10.1654C14.5603 10.3257 14.5731 10.4893 14.5731 10.6515C14.5756 12.1821 14.5731 11.6328 14.5762 13.1634C14.5762 13.3482 14.5437 13.5207 14.3864 13.6141H14.3858Z" fill="white" fill-opacity="0.6"/>
<path d="M15.3511 16.9801C12.4487 16.9781 9.54634 16.9794 6.64394 16.9794C6.606 16.9794 6.56744 16.9781 6.52949 16.982C6.16654 17.0168 5.87764 17.3374 5.86663 17.7173C5.85316 18.1874 6.16898 18.5222 6.64456 18.5235C8.08841 18.5267 9.53165 18.5248 10.9755 18.5248C12.4267 18.5248 13.8779 18.5222 15.3291 18.5274C15.6492 18.5286 15.8953 18.4089 16.047 18.1108C16.3176 17.5815 15.9491 16.9814 15.3511 16.9807V16.9801Z" fill="white" fill-opacity="0.6"/>
</svg>
