<svg
    viewBox="0 0 19 16"
    fill="none"
    xmlns="http://www.w3.org/2000/svg"
  >
    <path d="M18.9957 3.29167C18.9957 3.07868 18.9751 2.86069 18.9312 2.65327C18.5956 1.05672 17.3475 0.00402614 15.7935 0.00235785C13.6954 0.000133463 11.598 0.00180175 9.49994 0.00180175C7.38871 0.00180175 5.27801 -0.00320311 3.16678 0.00347004C1.39809 0.009031 0.00311095 1.48157 0.00152515 3.33282C-6.06456e-05 5.70568 -0.00111785 8.0791 0.00205375 10.452C0.00469675 12.2376 1.41289 13.7385 3.10758 13.7413C7.36915 13.7485 11.6307 13.7485 15.8923 13.7413C17.5875 13.7385 18.9952 12.2393 18.9978 10.4525C19.0015 8.06575 19.0005 5.67843 18.9957 3.29167ZM9.5047 1.91032C10.7733 1.91477 11.812 3.0025 11.8041 4.32656C11.7962 5.66953 10.7977 6.75392 9.50152 6.75503C8.20434 6.75615 7.19841 5.66842 7.19577 4.316C7.19366 2.99138 8.23923 1.90588 9.5047 1.91032ZM12.4242 11.7577C12.339 11.8077 12.2291 11.8316 12.1303 11.8322C11.2538 11.8378 10.3769 11.8355 9.50047 11.8355C8.62828 11.8355 7.75556 11.8355 6.88337 11.8355C6.54454 11.8355 6.41133 11.6971 6.41186 11.3439C6.41292 9.9765 6.40763 10.4058 6.4182 9.03836C6.42507 8.15028 7.13815 7.30446 7.97229 7.16933C8.09122 7.14986 8.21227 7.13707 8.33226 7.13652C9.15265 7.1354 9.97357 7.1304 10.794 7.14208C11.627 7.15431 12.4321 7.91005 12.5552 8.77922C12.5748 8.91769 12.5859 9.05894 12.5859 9.19908C12.588 10.5209 12.5859 10.0466 12.5885 11.3684C12.5885 11.528 12.5605 11.677 12.4247 11.7577H12.4242Z" />
    <path d="M13.258 14.6645C10.7513 14.6628 8.24471 14.6639 5.73809 14.6639C5.70531 14.6639 5.67201 14.6628 5.63924 14.6662C5.32578 14.6962 5.07628 14.9731 5.06676 15.3012C5.05513 15.7072 5.32789 15.9963 5.73861 15.9975C6.98558 16.0002 8.23202 15.9986 9.47899 15.9986C10.7323 15.9986 11.9856 15.9963 13.2389 16.0008C13.5154 16.0019 13.7279 15.8985 13.859 15.641C14.0926 15.1839 13.7744 14.6656 13.258 14.665V14.6645Z" />
  </svg>