<svg width="18" height="19" viewBox="0 0 18 19" viewBox="0 0 18 19" fill="#FFFFFF" xmlns="http://www.w3.org/2000/svg">
<path d="M15.8705 9.07803L8.70098 16.2475C7.2847 17.6638 4.98749 17.8874 3.44246 16.6134C1.67381 15.1565 1.57894 12.5272 3.16463 10.9415L11.5403 2.56587C12.428 1.67815 13.8714 1.50874 14.8404 2.30159C15.9585 3.21641 16.0195 4.86308 15.0234 5.85922L7.90814 12.9745C7.53543 13.3472 6.92555 13.3472 6.55285 12.9745C6.18014 12.6018 6.18014 11.9919 6.55285 11.6192L12.4822 5.68981C12.7601 5.41197 12.7601 4.95117 12.4822 4.67334C12.2044 4.39551 11.7436 4.39551 11.4658 4.67334L5.63125 10.5079C4.74354 11.3956 4.57413 12.839 5.36697 13.808C6.28179 14.9261 7.92846 14.9871 8.9246 13.9909L15.9247 6.99088C17.3409 5.57461 17.5646 3.27739 16.2906 1.73237C14.8269 -0.0430611 12.2044 -0.131156 10.6187 1.45453L2.30402 9.76922C0.359181 11.7141 0.0406887 14.8787 1.79579 16.9997C3.82194 19.4324 7.42023 19.5612 9.60225 17.3792L16.8869 10.0945C17.1648 9.81666 17.1648 9.35586 16.8869 9.07803C16.6091 8.80019 16.1483 8.80019 15.8705 9.07803Z"/>
</svg>
