<svg width="54" height="54" viewBox="0 0 54 54" fill="none" xmlns="http://www.w3.org/2000/svg">
<path d="M2 14.5V8.25C2 6.5924 2.65848 5.00268 3.83058 3.83058C5.00268 2.65848 6.5924 2 8.25 2H14.5M2 39.5V45.75C2 47.4076 2.65848 48.9973 3.83058 50.1694C5.00268 51.3415 6.5924 52 8.25 52H14.5M39.5 2H45.75C47.4076 2 48.9973 2.65848 50.1694 3.83058C51.3415 5.00268 52 6.5924 52 8.25V14.5M39.5 52H45.75C47.4076 52 48.9973 51.3415 50.1694 50.1694C51.3415 48.9973 52 47.4076 52 45.75V39.5" stroke="#0076BF" stroke-width="4" stroke-linecap="round" stroke-linejoin="round"/>
<path d="M27 36.375C32.1777 36.375 36.375 32.1777 36.375 27C36.375 21.8223 32.1777 17.625 27 17.625C21.8223 17.625 17.625 21.8223 17.625 27C17.625 32.1777 21.8223 36.375 27 36.375Z" stroke="#0076BF" stroke-width="4" stroke-linecap="round" stroke-linejoin="round"/>
</svg>
