<svg
    viewBox="0 0 19 16"
    fill="none"
    xmlns="http://www.w3.org/2000/svg"
  >
    <path d="M9.49984 0.00180177C11.5978 0.00180177 13.6953 0.000133465 15.7933 0.00235788C17.3474 0.00402619 18.5954 1.05617 18.9316 2.65275C18.9754 2.86073 18.9955 3.07817 18.996 3.29115C19.0003 5.67795 19.0013 8.0653 18.9982 10.4521C18.9955 12.2389 17.5879 13.7381 15.8927 13.7409C11.6311 13.7481 7.3696 13.7481 3.10808 13.7409C1.41234 13.7387 0.00416811 12.2377 0.00205373 10.4521C-0.00111783 8.0792 -6.0645e-05 5.70575 0.00152514 3.33286C0.00311092 1.48159 1.39807 0.00903112 3.16675 0.00347008C5.27743 -0.00320316 7.38863 0.00180177 9.49984 0.00180177ZM8.81108 8.38284L8.86606 8.34613C8.86606 8.47737 8.86288 8.60917 8.86658 8.74041C8.87874 9.13135 9.15044 9.41941 9.50248 9.4183C9.85506 9.41719 10.1215 9.12968 10.1331 8.73485C10.1368 8.60472 10.1336 8.47404 10.1336 8.34391L10.1754 8.38895C10.5644 8.1515 10.9529 7.91404 11.3764 7.65601C11.4488 7.69827 11.573 7.77501 11.7009 7.84453C11.9208 7.96353 12.1354 7.93795 12.3352 7.79392C12.5382 7.64767 12.6191 7.43857 12.599 7.18276C12.5752 6.87301 12.3791 6.70563 12.1386 6.5844C12.0033 6.516 11.9509 6.44092 11.9901 6.26909C12.0339 6.07667 12.0408 5.87092 12.0371 5.67128C12.0323 5.45273 11.9969 5.23473 11.9747 5.01285C12.0921 4.93944 12.2152 4.87215 12.3289 4.78985C12.6064 4.58854 12.6862 4.20483 12.5186 3.90676C12.349 3.60424 12.0027 3.49691 11.694 3.65651C11.5709 3.72046 11.4535 3.79554 11.3838 3.83613C10.9572 3.57755 10.5628 3.33842 10.1685 3.0993C10.1336 3.02367 10.1352 2.90577 10.1336 2.78844C10.1278 2.36246 9.86669 2.07273 9.4935 2.07551C9.12824 2.07829 8.87293 2.36468 8.86658 2.78009C8.86447 2.90411 8.86658 3.02812 8.86658 3.09763C8.54414 3.28059 8.22487 3.40349 7.97802 3.61814C7.74385 3.82168 7.58633 3.85782 7.32679 3.67598C7.02496 3.46466 6.64649 3.59757 6.47522 3.91677C6.30502 4.23375 6.40598 4.61802 6.71468 4.81933C6.82462 4.89106 6.93774 4.95724 7.03236 5.01563C7.00646 5.21638 6.97422 5.38655 6.96523 5.55839C6.95572 5.73801 6.92823 5.93264 6.9795 6.09614C7.07571 6.402 6.9758 6.54436 6.71838 6.67949C6.39435 6.8491 6.3029 7.25394 6.47047 7.57315C6.6412 7.89791 7.01492 8.00747 7.34159 7.82562C7.45682 7.76167 7.56836 7.68993 7.68148 7.62153L7.6635 7.68048C8.04621 7.91515 8.42891 8.14983 8.81161 8.3845L8.81108 8.38284ZM9.51623 10.1624C9.0019 10.1624 8.48758 10.1607 7.97326 10.1624C7.59743 10.1635 7.32785 10.4204 7.31357 10.7846C7.29824 11.1767 7.55038 11.482 7.93996 11.4864C8.98182 11.4981 10.0237 11.4987 11.0655 11.4859C11.4482 11.4809 11.6962 11.1823 11.6866 10.7997C11.6777 10.4276 11.4033 10.164 11.0196 10.1629C10.5184 10.1613 10.0173 10.1629 9.51623 10.1629V10.1624Z" />
    <path d="M9.47946 15.9983C8.23251 15.9983 6.98608 16 5.73913 15.9972C5.32841 15.9961 5.05513 15.7069 5.06728 15.301C5.0768 14.9729 5.3263 14.6959 5.63975 14.6659C5.67252 14.6626 5.70583 14.6637 5.7386 14.6637C8.24519 14.6637 10.7518 14.6626 13.2584 14.6642C13.7748 14.6642 14.093 15.1831 13.8594 15.6402C13.7278 15.8977 13.5153 16.0011 13.2394 16C11.9861 15.9956 10.7328 15.9983 9.47946 15.9978V15.9983Z" />
    <path d="M9.50802 7.09176C8.80446 7.09676 8.22142 6.49895 8.2082 5.75878C8.19552 5.02861 8.80023 4.38798 9.50062 4.38965C10.1962 4.39132 10.7851 5.00804 10.7904 5.74098C10.7957 6.47226 10.2121 7.08675 9.50802 7.09176Z" />
  </svg>