<svg width="24px" height="24px" viewBox="0 0 24 24" fill="none" xmlns="http://www.w3.org/2000/svg">
<path d="M2.22222 13.2222H9.55556C9.87971 13.2222 10.1906 13.0935 10.4198 12.8642C10.649 12.635 10.7778 12.3242 10.7778 12V2.22222C10.7778 1.89807 10.649 1.58719 10.4198 1.35798C10.1906 1.12877 9.87971 1 9.55556 1H2.22222C1.89807 1 1.58719 1.12877 1.35798 1.35798C1.12877 1.58719 1 1.89807 1 2.22222V12C1 12.3242 1.12877 12.635 1.35798 12.8642C1.58719 13.0935 1.89807 13.2222 2.22222 13.2222ZM1 21.7778C1 22.1019 1.12877 22.4128 1.35798 22.642C1.58719 22.8712 1.89807 23 2.22222 23H9.55556C9.87971 23 10.1906 22.8712 10.4198 22.642C10.649 22.4128 10.7778 22.1019 10.7778 21.7778V16.8889C10.7778 16.5647 10.649 16.2539 10.4198 16.0246C10.1906 15.7954 9.87971 15.6667 9.55556 15.6667H2.22222C1.89807 15.6667 1.58719 15.7954 1.35798 16.0246C1.12877 16.2539 1 16.5647 1 16.8889V21.7778ZM13.2222 21.7778C13.2222 22.1019 13.351 22.4128 13.5802 22.642C13.8094 22.8712 14.1203 23 14.4444 23H21.7778C22.1019 23 22.4128 22.8712 22.642 22.642C22.8712 22.4128 23 22.1019 23 21.7778V13.2222C23 12.8981 22.8712 12.5872 22.642 12.358C22.4128 12.1288 22.1019 12 21.7778 12H14.4444C14.1203 12 13.8094 12.1288 13.5802 12.358C13.351 12.5872 13.2222 12.8981 13.2222 13.2222V21.7778ZM14.4444 9.55556H21.7778C22.1019 9.55556 22.4128 9.42679 22.642 9.19757C22.8712 8.96836 23 8.65749 23 8.33333V2.22222C23 1.89807 22.8712 1.58719 22.642 1.35798C22.4128 1.12877 22.1019 1 21.7778 1H14.4444C14.1203 1 13.8094 1.12877 13.5802 1.35798C13.351 1.58719 13.2222 1.89807 13.2222 2.22222V8.33333C13.2222 8.65749 13.351 8.96836 13.5802 9.19757C13.8094 9.42679 14.1203 9.55556 14.4444 9.55556Z" fill="white"/>
</svg>
