<svg width="13" height="13" viewBox="0 0 13 13" fill="none" xmlns="http://www.w3.org/2000/svg">
<path d="M12.4697 5.91772C12.4697 5.97656 12.4697 6.02714 12.4697 6.07735C12.4697 7.59983 12.4708 9.12231 12.4693 10.6448C12.4685 11.5362 11.9267 12.2501 11.0944 12.4491C10.9416 12.4858 10.7793 12.4978 10.6212 12.4981C7.85688 12.5011 5.09259 12.5011 2.3283 12.4996C1.38363 12.4993 0.659303 11.8967 0.499299 10.982C0.481687 10.8812 0.479813 10.7767 0.479813 10.674C0.478689 9.1328 0.479064 7.59159 0.479064 6.05038C0.479064 6.00916 0.482811 5.96794 0.485434 5.91772H12.4697Z" fill="#777777"/>
<path d="M10.073 2.31009C10.2769 2.31009 10.459 2.30897 10.6411 2.31009C11.6926 2.31721 12.4626 3.08838 12.4697 4.14171C12.4708 4.32383 12.4697 4.50594 12.4697 4.69705H0.493735C0.424038 3.95436 0.491487 3.25963 1.11052 2.73802C1.41367 2.48246 1.76141 2.33295 2.15823 2.31571C2.39093 2.3056 2.62476 2.31384 2.87544 2.31384C2.87544 2.10213 2.87544 1.90727 2.87544 1.71242C2.87544 1.52056 2.87432 1.32833 2.87544 1.13648C2.87881 0.779746 3.125 0.517819 3.46113 0.511823C3.80774 0.505828 4.06817 0.758388 4.07566 1.12186C4.08278 1.45911 4.07754 1.79636 4.07754 2.1336C4.07754 2.18456 4.07754 2.2359 4.07754 2.2981H8.8713C8.8713 2.18681 8.8713 2.08039 8.8713 1.9736C8.8713 1.69256 8.86755 1.41152 8.87242 1.13048C8.87879 0.766257 9.13323 0.509575 9.47834 0.511823C9.82121 0.514072 10.0711 0.776749 10.0726 1.14135C10.0745 1.52469 10.073 1.90802 10.073 2.30972V2.31009Z" fill="#777777"/>
</svg>
