<svg width="19" height="19" viewBox="0 0 19 19" fill="none" xmlns="http://www.w3.org/2000/svg">
<path d="M0 5.24587C0.110215 4.94704 0.180352 4.62442 0.338809 4.35383C0.784863 3.5904 1.47473 3.18452 2.35682 3.17857C4.45943 3.1637 6.56205 3.17225 8.66467 3.17485C9.1534 3.1756 9.50557 3.52201 9.49963 3.98029C9.49369 4.43003 9.14264 4.76157 8.66059 4.76194C6.60139 4.76343 4.54182 4.76269 2.48262 4.76269C1.89777 4.76269 1.58717 5.06932 1.58717 5.65212C1.58643 9.2883 1.58643 12.9245 1.58717 16.5607C1.58717 17.1371 1.89295 17.4468 2.46592 17.4471C6.10227 17.4482 9.73824 17.4482 13.3746 17.4471C13.9405 17.4471 14.25 17.1286 14.2504 16.5547C14.2504 14.4859 14.2493 12.4168 14.2515 10.348C14.2522 9.76778 14.7699 9.38383 15.2987 9.56298C15.6316 9.67597 15.8342 9.97369 15.8361 10.3699C15.839 11.0824 15.8372 11.7946 15.8372 12.5071C15.8372 13.8266 15.8372 15.146 15.8372 16.4655C15.8372 17.7697 15.2301 18.5927 13.9839 18.9788C13.9728 18.9822 13.9639 18.9926 13.9539 19H1.85547C1.81168 18.9818 1.76863 18.9591 1.72336 18.9454C1.09658 18.7555 0.608223 18.3819 0.303926 17.8028C0.165508 17.5397 0.099082 17.239 0 16.9554C0 13.0523 0 9.14929 0 5.24625V5.24587Z" fill="#626262"/>
<path d="M18.9999 2.23522C18.8978 2.86968 18.519 3.3302 18.0647 3.74871C17.815 3.97841 17.5842 4.22855 17.3619 4.45231C16.429 3.5179 15.5046 2.59166 14.5642 1.64981C14.5842 1.629 14.6325 1.57622 14.683 1.52567C14.9843 1.22312 15.2838 0.919085 15.5881 0.619879C16.1566 0.0616108 16.8334 -0.137612 17.5953 0.0961774C18.3553 0.329595 18.8125 0.865191 18.9687 1.6513C18.9732 1.6736 18.9891 1.69404 18.9999 1.71523V2.23559V2.23522Z" fill="#626262"/>
<path d="M13.6696 2.54822C14.604 3.48412 15.5295 4.4111 16.4617 5.34514C16.4309 5.37784 16.3908 5.42282 16.3478 5.46593C14.3409 7.47674 12.3352 9.48866 10.3223 11.4935C10.2077 11.608 10.0396 11.7002 9.88186 11.7344C9.0187 11.9213 8.15145 12.0871 7.28494 12.2588C6.92721 12.3298 6.69379 12.1072 6.76319 11.7541C6.94168 10.8498 7.12278 9.94621 7.31055 9.04413C7.33059 8.94712 7.38403 8.84231 7.45342 8.77243C9.51411 6.70178 11.5792 4.63522 13.6433 2.56792C13.6518 2.55937 13.6629 2.55305 13.6692 2.54822H13.6696Z" fill="#626262"/>
</svg>
