<svg viewBox="0 0 21 17" fill="none" xmlns="http://www.w3.org/2000/svg">
<path d="M0 14.6929C0 11.4804 0 8.26786 0 5.05588C0.030679 5.06903 0.0640971 5.07779 0.0909412 5.09587C2.93203 6.98975 5.77257 8.88472 8.61312 10.7791C9.85123 11.6047 11.1348 11.6113 12.3669 10.7901C15.1746 8.92033 17.9806 7.04837 20.7872 5.1775C20.8469 5.13751 20.9088 5.10025 20.9954 5.04492V5.21201C20.9954 8.27333 20.9965 11.3352 20.9926 14.3965C20.9926 14.5653 20.9724 14.7389 20.9313 14.9027C20.7045 15.8028 19.943 16.3655 18.9558 16.366C16.1607 16.3676 13.3656 16.366 10.5711 16.366C7.77657 16.366 4.88562 16.3649 2.04289 16.3671C1.48629 16.3671 0.996518 16.2038 0.587831 15.8165C0.262415 15.5086 0.100802 15.1169 0 14.6929Z" fill="#ACE3E7"/>
<path d="M0 2.30836C0.033966 2.19112 0.0630014 2.07279 0.101898 1.95719C0.369791 1.16173 1.0891 0.648408 1.96126 0.635808C2.36447 0.629781 2.76768 0.634712 3.17089 0.634712C8.4263 0.634712 13.6817 0.635808 18.9366 0.633616C19.548 0.633616 20.0788 0.816047 20.4941 1.27733C21.2775 2.14729 21.1373 3.44732 20.1692 4.10582C18.8933 4.97359 17.6031 5.82165 16.319 6.67792C14.7905 7.6969 13.2626 8.71643 11.7336 9.73486C10.8543 10.3205 10.1432 10.3205 9.26505 9.73486C6.57187 7.93904 3.88363 6.13611 1.18114 4.35454C0.604266 3.97434 0.14189 3.54264 0 2.84141V2.30836Z" fill="#ACE3E7"/>
</svg>
