<svg
    viewBox="0 0 19 20"
    fill="none"
    xmlns="http://www.w3.org/2000/svg"
  >
    <path d="M4.83334 19.2635C3.63098 19.2635 2.42862 19.2666 1.22564 19.2622C0.562179 19.2597 0.078356 18.8804 0.00762895 18.2708C-0.0192849 18.0398 0.0282838 17.7857 0.0990108 17.5604C0.65982 15.7741 1.84904 14.6318 3.65915 14.148C3.78746 14.1135 3.93955 14.1273 4.07224 14.1567C4.59988 14.2738 5.12251 14.2688 5.65014 14.1524C5.78847 14.1217 5.94933 14.1204 6.08515 14.1586C7.97475 14.6906 9.16897 15.9155 9.66343 17.8114C9.86623 18.5888 9.31856 19.256 8.48736 19.261C7.26936 19.2679 6.05135 19.2628 4.83334 19.2628V19.2635Z" />
    <path d="M14.1324 10.7093C12.9464 10.7093 11.7603 10.7093 10.5742 10.7093C9.62782 10.7093 9.10582 10.0571 9.35994 9.14954C9.88382 7.28122 11.0943 6.09326 12.9714 5.59442C13.0778 5.56625 13.2042 5.56938 13.3119 5.59504C13.8696 5.72711 14.4229 5.72648 14.9805 5.59442C15.0888 5.56875 15.2146 5.56625 15.321 5.59442C17.2388 6.10453 18.448 7.3313 18.9544 9.24218C19.1647 10.0339 18.6258 10.7055 17.8065 10.708C16.5816 10.7118 15.3561 10.7093 14.1312 10.7093H14.1324Z" />
    <path d="M7.168 10.8639C7.17363 12.152 6.14339 13.191 4.85654 13.1947C3.57406 13.1985 2.52568 12.1608 2.52004 10.882C2.51441 9.60581 3.56092 8.55305 4.83776 8.55054C6.12712 8.54804 7.16174 9.57515 7.16737 10.8639H7.168Z" />
    <path d="M11.8243 2.31216C11.8318 1.02593 12.8764 -0.00994244 14.1564 7.20046e-05C15.4414 0.0100865 16.4797 1.05722 16.4716 2.33469C16.4635 3.61216 15.4057 4.65992 14.1338 4.65116C12.852 4.64239 11.8167 3.59338 11.8243 2.31216Z" />
    <path d="M16.2611 14.6913C16.2611 15.0581 16.2661 15.4255 16.2605 15.7923C16.2448 16.8144 15.5513 17.5091 14.5324 17.5172C13.775 17.5235 13.0177 17.5216 12.2603 17.5172C11.7508 17.5141 11.4079 17.1905 11.4072 16.7236C11.4066 16.2585 11.7521 15.9237 12.2566 15.9193C12.967 15.913 13.678 15.9105 14.3884 15.9218C14.5956 15.9249 14.6719 15.8786 14.6669 15.6533C14.6519 14.9197 14.6544 14.1849 14.6638 13.4514C14.6713 12.8743 15.1733 12.4925 15.694 12.6515C16.0301 12.7541 16.2486 13.0314 16.258 13.4019C16.2686 13.8313 16.2605 14.2607 16.2605 14.6907H16.2624L16.2611 14.6913Z" />
    <path d="M3.77073 4.60224C3.77073 4.19603 3.75884 3.78982 3.77323 3.38423C3.80265 2.528 4.46173 1.82887 5.31608 1.79632C6.16606 1.76377 7.01791 1.77566 7.86914 1.78881C8.30853 1.79569 8.62523 2.15371 8.6221 2.58558C8.61897 3.02371 8.29288 3.36358 7.83284 3.3761C7.31772 3.39049 6.80198 3.37985 6.28686 3.38048C6.06028 3.38048 5.83308 3.393 5.60775 3.37672C5.40559 3.36233 5.36052 3.44307 5.36303 3.63147C5.37241 4.36565 5.37116 5.09983 5.36553 5.83402C5.36115 6.36791 4.96683 6.72969 4.46298 6.67586C4.0818 6.63518 3.78199 6.31596 3.77198 5.91351C3.76134 5.47663 3.76948 5.03912 3.76948 4.60162H3.77135L3.77073 4.60224Z" />
  </svg>