<svg width="20" height="22" viewBox="0 0 20 22" fill="none" xmlns="http://www.w3.org/2000/svg">
<g clip-path="url(#clip0_32_461)">
<path d="M19.9994 10.4045C19.9994 10.5076 19.9994 10.5962 19.9994 10.6842C19.9994 13.3512 20.0013 16.0182 19.9988 18.6852C19.9976 20.2468 19.0944 21.4973 17.7071 21.8458C17.4523 21.9102 17.1818 21.9312 16.9182 21.9318C12.3105 21.9371 7.70274 21.9371 3.095 21.9345C1.52036 21.9338 0.312988 20.8783 0.04628 19.276C0.0169234 19.0994 0.0138003 18.9163 0.0138003 18.7364C0.0119265 16.0366 0.0125511 13.3367 0.0125511 10.6369C0.0125511 10.5647 0.0187972 10.4925 0.0231695 10.4045H19.9994Z" fill="#AEAEAE"/>
<path d="M16.0045 4.08488C16.3443 4.08488 16.6479 4.08292 16.9514 4.08488C18.7041 4.09736 19.9877 5.44826 19.9995 7.29344C20.0014 7.61245 19.9995 7.93147 19.9995 8.26624H0.0370084C-0.079169 6.96523 0.0332607 5.74824 1.06512 4.83451C1.57043 4.38684 2.15006 4.12493 2.81152 4.09473C3.19941 4.07701 3.58916 4.09145 4.00703 4.09145C4.00703 3.72057 4.00703 3.37924 4.00703 3.0379C4.00703 2.70182 4.00515 2.36508 4.00703 2.029C4.01265 1.40409 4.42302 0.945256 4.98329 0.934753C5.56106 0.924251 5.99516 1.36667 6.00765 2.0034C6.01952 2.59417 6.01078 3.18494 6.01078 3.77571C6.01078 3.86499 6.01078 3.95491 6.01078 4.06388H14.0014C14.0014 3.86892 14.0014 3.6825 14.0014 3.49542C14.0014 3.00311 13.9952 2.5108 14.0033 2.01849C14.0139 1.38046 14.438 0.930815 15.0133 0.934753C15.5848 0.938692 16.0014 1.39884 16.0039 2.03753C16.007 2.70904 16.0045 3.38055 16.0045 4.08423V4.08488Z" fill="#AEAEAE"/>
</g>
<defs>
<clipPath id="clip0_32_461">
<rect width="20" height="21" fill="white" transform="translate(0 0.935059)"/>
</clipPath>
</defs>
</svg>
