<svg width="18" height="18" viewBox="0 0 18 18" fill="none" xmlns="http://www.w3.org/2000/svg">
<path d="M16.383 2.86005C16.383 3.50438 16.3868 4.14927 16.3802 4.79361C16.3786 4.95469 16.4136 5.04752 16.5759 5.12888C17.4913 5.58702 17.9969 6.33074 18.0007 7.36223C18.004 8.39263 17.5072 9.14181 16.5934 9.60595C16.4294 9.6895 16.3791 9.78014 16.3797 9.95761C16.3857 12.2729 16.3841 14.5876 16.383 16.9028C16.383 17.0295 16.383 17.1578 16.3644 17.2829C16.3043 17.6919 15.9496 17.9927 15.5298 17.9987C15.1079 18.0053 14.7417 17.7208 14.6674 17.3162C14.6428 17.1835 14.6406 17.0453 14.6406 16.9099C14.639 14.6132 14.6374 12.316 14.6428 10.0193C14.6428 9.81017 14.5985 9.69168 14.3881 9.58192C13.5022 9.11887 13.0213 8.37461 13.0234 7.3666C13.0256 6.35804 13.5115 5.61869 14.398 5.15673C14.5942 5.05462 14.645 4.94541 14.6434 4.74228C14.6357 3.48036 14.6368 2.21844 14.6412 0.956515C14.6428 0.413741 14.95 0.0451567 15.4162 0.00420297C15.9643 -0.0438495 16.3709 0.324188 16.3808 0.900271C16.3917 1.55389 16.3835 2.20752 16.3835 2.86114H16.3846L16.383 2.86005Z" fill="#777777"/>
<path d="M1.61777 13.4938C1.61777 12.3138 1.6134 11.1332 1.62269 9.9532C1.62433 9.77027 1.56257 9.68672 1.40298 9.60482C0.501751 9.14286 0.00495468 8.40405 3.59049e-05 7.38458C-0.00488287 6.35254 0.495739 5.60664 1.40517 5.13813C1.56749 5.05458 1.62323 4.96885 1.62214 4.7892C1.61449 3.50926 1.61503 2.22932 1.61995 0.94883C1.62214 0.34053 2.00307 -0.0346066 2.56217 0.00252482C2.94201 0.0276431 3.26884 0.313227 3.33606 0.691094C3.35792 0.815048 3.3612 0.943915 3.3612 1.0706C3.36284 2.30522 3.36557 3.53984 3.35902 4.77446C3.35792 4.95793 3.40711 5.05458 3.58473 5.14577C4.48378 5.60882 4.97839 6.35254 4.97784 7.37202C4.97729 8.3904 4.48815 9.13576 3.58528 9.59826C3.41094 9.68782 3.35792 9.78501 3.35847 9.97122C3.36393 12.2865 3.36339 14.6012 3.35956 16.9164C3.35956 17.0873 3.353 17.2659 3.30382 17.427C3.18249 17.8201 2.78406 18.0468 2.35777 17.9927C1.9752 17.9446 1.65001 17.6263 1.63252 17.2255C1.60848 16.6816 1.61941 16.1367 1.61831 15.5917C1.61667 14.8928 1.61831 14.1938 1.61831 13.4943L1.61777 13.4938Z" fill="#777777"/>
<path d="M9.87288 4.76167C9.87288 6.04161 9.87616 7.32155 9.86851 8.6015C9.86741 8.77077 9.91933 8.85213 10.0718 8.92858C10.9894 9.3889 11.4922 10.143 11.4933 11.1663C11.4944 12.1896 10.9933 12.947 10.0751 13.4056C9.90348 13.4914 9.86851 13.5875 9.8696 13.7578C9.87616 14.8472 9.87397 15.9366 9.87233 17.026C9.87179 17.6097 9.52419 17.9968 9.00499 17.999C8.48578 18.0012 8.12999 17.6113 8.12944 17.0342C8.1278 15.936 8.12562 14.8374 8.13272 13.7393C8.13382 13.5738 8.09009 13.4876 7.93379 13.4095C7.00523 12.9459 6.50078 12.1836 6.50789 11.1477C6.51499 10.1228 7.02764 9.37361 7.9469 8.92148C8.11633 8.83848 8.13108 8.73801 8.13108 8.58457C8.12835 6.04271 8.12835 3.50139 8.12944 0.959523C8.12944 0.42494 8.43769 0.0470733 8.90005 0.00448135C9.45587 -0.0463013 9.87015 0.33921 9.87178 0.922392C9.87561 2.20233 9.87288 3.48228 9.87288 4.76222V4.76167Z" fill="#777777"/>
</svg>
