<svg width="22" height="22" viewBox="0 0 22 22" fill="none" xmlns="http://www.w3.org/2000/svg">
<path d="M0 9.49549V0.644491C0.125234 0.339861 0.339983 0.125031 0.644246 0H9.49241C9.8836 0.163271 10.147 0.418919 10.1466 0.877796C10.1453 3.67574 10.1491 6.47369 10.1388 9.27164C10.1379 9.45253 10.0661 9.65361 9.96924 9.80872C9.79452 10.0876 9.50231 10.1524 9.18298 10.152C6.48593 10.1481 3.78887 10.1417 1.09225 10.1567C0.566781 10.1597 0.190649 10.0034 0 9.49549H0Z" fill="#EEEEEE"/>
<path d="M12.498 0H21.3461C21.7412 0.175301 21.9925 0.445128 21.9921 0.909161C21.9887 3.68649 21.9917 6.46381 21.9895 9.24113C21.9895 9.79626 21.6491 10.1473 21.097 10.1477C18.3061 10.1516 15.5157 10.1524 12.7248 10.1421C12.544 10.1413 12.3422 10.0712 12.1873 9.97413C11.8998 9.79411 11.8413 9.49292 11.8417 9.16723C11.846 6.47584 11.852 3.78445 11.837 1.09306C11.8339 0.567581 11.9902 0.190769 12.498 0V0Z" fill="#EEEEEE"/>
<path d="M0 21.3541V12.5031C0.163536 12.1117 0.418738 11.8483 0.8775 11.8488C3.6744 11.85 6.47172 11.8462 9.26862 11.8565C9.44937 11.8573 9.65035 11.9291 9.80527 12.0262C10.0841 12.2011 10.1487 12.4937 10.1483 12.8125C10.1444 15.5176 10.1388 18.2223 10.1526 20.9275C10.1552 21.4469 9.98775 21.8113 9.49197 21.9986H0.644246C0.339122 21.874 0.125234 21.6583 0 21.3541Z" fill="#EEEEEE"/>
<path d="M21.3486 21.9987H12.5005C12.0043 21.8114 11.8373 21.447 11.8399 20.9271C11.8536 18.2284 11.8459 15.5302 11.8468 12.8315C11.8468 12.1646 12.1644 11.8493 12.8344 11.8493C15.5534 11.8488 18.2729 11.8591 20.9919 11.8419C21.6878 11.8377 22.0028 12.3047 21.9998 12.8435C21.9843 15.5207 21.9843 18.1979 21.9998 20.8747C22.0028 21.4032 21.8569 21.7925 21.3482 21.9987H21.3486Z" fill="#EEEEEE"/>
</svg>
