<svg
    viewBox="0 0 19 19"
    fill="none"
    xmlns="http://www.w3.org/2000/svg"
  >
    <path d="M0 10.5563V8.408C0.124322 8.0972 0.359979 7.95154 0.686557 7.89865C1.16112 7.82165 1.6315 7.71634 2.1042 7.62635C2.20858 7.6064 2.26517 7.56651 2.30785 7.45471C2.51753 6.91057 2.74066 6.37106 2.97121 5.83481C3.01621 5.72997 3.01575 5.66178 2.95219 5.569C2.66273 5.14732 2.37929 4.72101 2.09539 4.29516C1.8653 3.94956 1.89453 3.66519 2.19095 3.3683C2.58758 2.97075 2.98513 2.57366 3.38361 2.17796C3.67215 1.89174 3.95976 1.86391 4.29794 2.08843C4.72472 2.37141 5.15196 2.65438 5.57456 2.94338C5.66317 3.00415 5.73136 3.01065 5.8246 2.95591C6.34369 2.65252 6.89711 2.42707 7.47605 2.26796C7.58274 2.23873 7.62496 2.18585 7.64444 2.08194C7.73165 1.61573 7.83742 1.15323 7.9135 0.685165C7.96638 0.359051 8.1125 0.123859 8.42378 0H10.5762C10.8875 0.123859 11.0336 0.359515 11.0865 0.685165C11.1621 1.15277 11.2683 1.61573 11.3556 2.08194C11.375 2.18585 11.4173 2.23827 11.524 2.26749C12.1033 2.42614 12.6563 2.65206 13.1754 2.95544C13.2686 3.01018 13.3368 3.00369 13.4254 2.94292C13.848 2.65391 14.2753 2.37094 14.7021 2.08797C15.0407 1.86345 15.3283 1.89128 15.6164 2.1775C16.0153 2.5732 16.4124 2.97029 16.809 3.36784C17.105 3.66473 17.1347 3.94863 16.9041 4.29469C16.624 4.71544 16.3456 5.13758 16.0575 5.55323C15.9847 5.65806 15.9861 5.73414 16.0371 5.85104C16.2631 6.36921 16.4797 6.89155 16.6819 7.41899C16.7302 7.5447 16.7798 7.60733 16.9139 7.63099C17.3815 7.71495 17.8449 7.82258 18.3134 7.89865C18.64 7.95154 18.8757 8.0972 19 8.408V10.5563C18.8757 10.8671 18.6396 11.0127 18.3125 11.0656C17.8375 11.1422 17.3676 11.2498 16.8935 11.3361C16.7636 11.3597 16.7056 11.4173 16.6564 11.5444C16.4579 12.0542 16.2468 12.5594 16.0209 13.0571C15.9611 13.1884 15.9601 13.2714 16.0408 13.3879C16.3363 13.8132 16.6221 14.2461 16.9092 14.6775C17.1291 15.0073 17.1032 15.2991 16.8271 15.577C16.4222 15.9843 16.0158 16.3902 15.6076 16.7942C15.3288 17.0702 15.0351 17.0971 14.7067 16.8791C14.2539 16.579 13.8049 16.2723 13.3484 15.9782C13.2918 15.942 13.1875 15.9369 13.123 15.9625C12.5909 16.1731 12.0616 16.3916 11.5351 16.6165C11.4711 16.6439 11.3982 16.7195 11.3843 16.7845C11.2679 17.3203 11.1644 17.8588 11.0573 18.3969C10.984 18.7653 10.7474 18.9629 10.3712 18.9638C9.79643 18.9652 9.2212 18.9647 8.64644 18.9638C8.24564 18.9634 8.01694 18.7718 7.93901 18.3784C7.8351 17.8523 7.72655 17.3277 7.62728 16.8007C7.6064 16.6889 7.55305 16.6434 7.44961 16.6026C6.92866 16.3971 6.41003 16.1847 5.8965 15.962C5.79074 15.9161 5.72394 15.9198 5.63162 15.9829C5.18814 16.2858 4.74003 16.5827 4.29237 16.8791C3.96347 17.0971 3.66983 17.0698 3.3915 16.7942C2.98791 16.3943 2.58572 15.9926 2.18492 15.5899C1.89174 15.2958 1.86669 15.0119 2.10049 14.6617C2.38486 14.2359 2.66644 13.8077 2.95869 13.3874C3.03987 13.271 3.03848 13.1879 2.97864 13.0566C2.75272 12.5584 2.54165 12.0533 2.34311 11.5439C2.29347 11.4173 2.23595 11.3593 2.10606 11.3356C1.63243 11.2498 1.16251 11.1417 0.687021 11.0652C0.360442 11.0123 0.123859 10.8666 0 10.5558L0 10.5563ZM9.49629 14.3685C12.2036 14.3741 14.4316 12.153 14.4358 9.4448C14.44 6.73754 12.2216 4.52107 9.50418 4.51736C6.79042 4.51365 4.56839 6.72687 4.56468 9.43691C4.56097 12.1419 6.78207 14.363 9.49629 14.369V14.3685Z" />
    <path d="M9.50119 10.1577C8.56969 10.1586 7.80335 9.39969 7.79546 8.4682C7.78804 7.54088 8.57619 6.75737 9.50814 6.76619C10.4429 6.775 11.2088 7.54227 11.2046 8.46588C11.2009 9.39412 10.4331 10.1568 9.50119 10.1577Z" />
    <path d="M7.59404 10.7234C8.87206 11.628 10.1273 11.6321 11.4179 10.7136C11.5292 10.9358 11.6707 11.1483 11.7435 11.3816C11.8474 11.7138 11.5691 12.0737 11.2161 12.1095C11.1182 12.1192 11.0185 12.1164 10.9197 12.1169C9.93112 12.1169 8.94211 12.0979 7.95402 12.1248C7.41452 12.1392 7.03042 11.6196 7.36349 11.1116C7.44421 10.9887 7.51379 10.8588 7.59358 10.7234H7.59404Z" />
  </svg>