<svg  viewBox="0 0 39 39" fill="none" xmlns="http://www.w3.org/2000/svg">
<path d="M18.2812 0H20.7188C21.383 0.0868359 22.051 0.15082 22.7099 0.263555C26.3722 0.889688 29.6133 2.41998 32.3883 4.88947C35.781 7.90893 37.9031 11.6589 38.7006 16.1401C38.8271 16.8492 38.9017 17.5668 39 18.2812V20.7188C38.9787 20.817 38.9444 20.9137 38.9368 21.0128C38.7067 24.0208 37.8445 26.8376 36.2738 29.4115C33.1789 34.4822 28.7084 37.6 22.8577 38.7022C22.1508 38.8355 21.4325 38.9025 20.7188 39.0008H18.2812C17.8052 38.9421 17.3283 38.8911 16.8546 38.8233C12.9736 38.2672 9.54434 36.7133 6.61324 34.1098C3.2274 31.101 1.11287 27.3602 0.303926 22.8973C0.17291 22.1767 0.0997851 21.4454 0 20.7188V18.2812C0.0853125 17.63 0.149297 16.9741 0.258984 16.3267C0.949102 12.2705 2.72848 8.76053 5.61768 5.83172C8.5343 2.87625 12.0443 1.01994 16.1416 0.299355C16.8507 0.174434 17.5675 0.0982617 18.2812 0ZM17.8836 15.0127H17.8813C17.8813 16.7007 17.8943 18.3894 17.8745 20.0774C17.8669 20.705 18.0741 21.1941 18.5189 21.6359C21.1133 24.212 23.6933 26.8018 26.2793 29.3863C26.3958 29.5029 26.5116 29.6225 26.6411 29.723C27.5323 30.4109 28.8455 29.995 29.1715 28.9187C29.3772 28.2407 29.1662 27.6778 28.6772 27.1896C26.242 24.7597 23.8129 22.3237 21.3746 19.8969C21.1895 19.7125 21.1103 19.5297 21.1126 19.2669C21.124 17.4898 21.1187 15.7127 21.1187 13.9356C21.1187 12.5646 21.1148 11.1935 21.1202 9.82236C21.1225 9.31049 20.9617 8.87098 20.5725 8.53658C20.0644 8.09936 19.4764 8.00414 18.8662 8.26313C18.2386 8.52896 17.8913 9.02941 17.8867 9.72029C17.8768 11.4844 17.8836 13.2493 17.8836 15.0135V15.0127Z" fill="white"/>
</svg>
