<svg width="41" height="43" viewBox="0 0 41 43" fill="none" xmlns="http://www.w3.org/2000/svg">
<path d="M22.727 42.817C18.1169 42.817 13.5057 42.817 8.89559 42.817C7.59635 42.817 6.97811 42.1441 7.17799 40.8681C8.19484 34.3905 11.8659 30.1372 18.0112 27.9501C19.5521 27.4016 21.1117 27.0146 22.7607 27.0507C28.4562 27.175 32.8373 29.6793 35.9773 34.387C37.2661 36.3196 38.0041 38.4788 38.3213 40.7786C38.4991 42.0721 37.8541 42.8158 36.5596 42.8158C31.9495 42.8158 27.3382 42.8158 22.7282 42.8158L22.727 42.817Z" fill="#00B4D8"/>
<path d="M30.5307 16.6484C30.5295 20.9203 27.0211 24.4473 22.769 24.4508C18.4971 24.4543 14.9422 20.9122 14.9434 16.6519C14.9434 12.3126 18.3809 8.84601 22.6725 8.85647C27.0188 8.86693 30.5319 12.3498 30.5295 16.6472L30.5307 16.6484Z" fill="#00B4D8"/>
<path d="M12.6656 19.9558C13.6162 21.9716 14.9887 23.7818 16.783 25.3863C16.1275 25.6629 15.4675 25.9116 14.8341 26.216C10.8655 28.1265 7.92307 31.0702 6.02418 35.0457C5.88938 35.327 5.72552 35.4095 5.42802 35.4048C4.28335 35.3885 3.13867 35.4002 1.994 35.3978C0.731947 35.3955 0.119516 34.7087 0.300805 33.4618C1.10847 27.8906 3.99631 23.7872 9.0015 21.198C10.1485 20.6042 11.3734 20.2103 12.6656 19.9546V19.9558Z" fill="#00B4D8"/>
<path d="M21.186 6.18283C18.261 6.70694 15.9042 8.1433 14.1715 10.5396C12.4458 12.9277 11.8415 15.6017 12.3272 18.5314C10.1367 17.6784 7.66718 15.0532 7.70902 11.3333C7.74621 8.03639 9.93911 5.05907 13.107 4.03642C16.376 2.98239 19.6078 4.29208 21.1848 6.18283H21.186Z" fill="#00B4D8"/>
<path d="M32.7665 5.14271C32.7665 4.31761 32.7619 3.56457 32.7665 2.81152C32.7746 1.71682 33.5521 0.895206 34.5852 0.880099C35.6265 0.864991 36.433 1.64477 36.4702 2.74644C36.4969 3.52622 36.4748 4.30715 36.4748 5.14387C37.3022 5.14387 38.0948 5.13225 38.8873 5.14619C40.1075 5.16944 40.9501 6.25601 40.6793 7.43671C40.4887 8.26529 39.7636 8.82775 38.8234 8.85216C38.2005 8.86843 37.5765 8.85448 36.9536 8.8568C36.8118 8.8568 36.6712 8.86959 36.4771 8.88005C36.4771 9.65285 36.4864 10.4012 36.4748 11.1508C36.4597 12.1781 35.8589 12.9207 34.9385 13.0776C33.8194 13.2682 32.8025 12.4535 32.7712 11.3181C32.7502 10.5233 32.7665 9.72722 32.7665 8.88005C32.5934 8.87191 32.4411 8.85913 32.2901 8.8568C31.58 8.84751 30.8665 8.88586 30.1611 8.8231C29.1489 8.73362 28.4493 7.87599 28.5051 6.88355C28.5597 5.92248 29.3499 5.16363 30.34 5.14736C31.1338 5.13341 31.9263 5.14503 32.7654 5.14503L32.7665 5.14271Z" fill="#00B4D8"/>
</svg>
