<svg
    viewBox="0 0 19 17"
    fill="none"
    xmlns="http://www.w3.org/2000/svg"
  >
    <path d="M1.73826 13.1706C1.7341 13.1016 1.72697 13.0369 1.72697 12.9715C1.72697 10.113 1.7246 7.2538 1.72757 4.39524C1.72816 3.60975 2.17914 3.03103 2.90046 2.87595C3.01514 2.85099 3.13635 2.84505 3.25399 2.84505C5.0882 2.84327 6.92241 2.84327 8.75721 2.84386C8.81485 2.84386 8.87248 2.85159 8.94259 2.85634C8.96933 3.22057 9.10955 3.52122 9.41021 3.75651C9.10124 4.37029 9.36742 4.87058 9.74413 5.34235C9.86891 5.49862 10.0068 5.64538 10.1464 5.78857C10.4167 6.06605 10.7471 6.19558 11.1339 6.14151C11.2575 6.12428 11.3151 6.15993 11.3775 6.2651C11.5486 6.55506 11.8059 6.75529 12.1422 6.78084C12.5611 6.81233 12.9853 6.82006 13.4042 6.79213C13.7536 6.76896 14.0329 6.57288 14.2153 6.26807C14.2771 6.16528 14.3341 6.12547 14.4589 6.14211C14.8635 6.19558 15.2069 6.05892 15.4773 5.75768C15.6698 5.54259 15.8582 5.32156 16.0299 5.08983C16.3293 4.6852 16.4131 4.24432 16.1855 3.76483C16.466 3.53548 16.6258 3.24433 16.6436 2.88486C17.0215 2.76365 17.2693 2.91576 17.2693 3.28414C17.2717 6.55149 17.2705 9.81824 17.2693 13.0856C17.2693 13.1076 17.264 13.1296 17.258 13.17H1.73826V13.1706ZM7.28842 12.2644C7.47083 12.246 7.65562 12.2336 7.83922 12.208C8.08104 12.1741 8.21176 12.028 8.19394 11.7808C8.17611 11.533 8.29851 11.3845 8.49875 11.2888C8.70374 11.1908 8.90575 11.1753 9.09648 11.3482C9.27355 11.5087 9.47675 11.5158 9.63183 11.3441C9.87901 11.0702 10.1125 10.7814 10.3252 10.4802C10.4607 10.2888 10.4078 10.0951 10.2076 9.96025C10.0026 9.82181 9.95863 9.63346 10.0068 9.41659C10.0561 9.19615 10.1601 9.02324 10.4197 8.98284C10.6556 8.9466 10.7911 8.80221 10.7578 8.5895C10.6984 8.21101 10.6164 7.83431 10.5118 7.46592C10.4512 7.25261 10.2611 7.16943 10.0478 7.23835C9.80295 7.31738 9.62351 7.23241 9.47854 7.05178C9.33534 6.87353 9.2783 6.68161 9.40723 6.45702C9.52547 6.25084 9.48448 6.04466 9.28543 5.93474C8.96279 5.75649 8.62828 5.59606 8.28722 5.45524C8.08283 5.37087 7.88734 5.46297 7.81248 5.66558C7.71919 5.91751 7.53203 6.00545 7.29436 6.00366C7.0662 6.00188 6.88498 5.91335 6.79288 5.6739C6.71207 5.46475 6.52729 5.37147 6.32348 5.45465C5.98243 5.59428 5.64672 5.75292 5.32468 5.93177C5.11494 6.04823 5.07157 6.24728 5.1904 6.4487C5.32112 6.67033 5.27418 6.86224 5.13158 7.04465C4.98838 7.22766 4.81072 7.31619 4.56593 7.24132C4.33836 7.17121 4.15298 7.25202 4.08583 7.47721C3.98304 7.82361 3.90045 8.17833 3.84401 8.53484C3.8036 8.79211 3.93135 8.94125 4.19397 8.98522C4.43164 9.02503 4.53978 9.1807 4.58613 9.3845C4.63485 9.60197 4.62237 9.80755 4.40193 9.9549C4.1916 10.0957 4.14228 10.2876 4.28607 10.4926C4.49403 10.7885 4.72219 11.0719 4.96402 11.3405C5.11969 11.5134 5.33241 11.5122 5.49996 11.3536C5.68891 11.1747 5.88855 11.186 6.09413 11.2841C6.30031 11.3827 6.434 11.5324 6.41439 11.7909C6.39597 12.0303 6.52016 12.1718 6.75248 12.2068C6.92835 12.233 7.10601 12.2454 7.28723 12.2644H7.28842Z" />
    <path d="M9.49887 13.9524C12.4852 13.9524 15.4715 13.9524 18.4578 13.9524C18.9076 13.9524 19.024 14.0777 18.9961 14.5293C18.9331 15.559 18.0318 16.4253 16.9652 16.4812C16.891 16.4853 16.8167 16.4853 16.7424 16.4853C11.9142 16.4853 7.08534 16.4859 2.25711 16.4853C1.1876 16.4853 0.346845 15.8852 0.0782791 14.9227C0.0271803 14.7391 0.00816682 14.543 0.000442591 14.3523C-0.00906415 14.1229 0.13532 13.9767 0.362293 13.9553C0.43597 13.9482 0.510836 13.953 0.585107 13.953C3.55656 13.953 6.52801 13.953 9.49946 13.953L9.49887 13.9524Z" />
    <path d="M15.9138 2.7274C15.8936 3.04825 15.8277 3.14094 15.5163 3.21818C15.3286 3.26453 15.2525 3.40356 15.2175 3.56874C15.1836 3.72917 15.2145 3.87177 15.3606 3.98288C15.5876 4.1546 15.6274 4.32453 15.4664 4.55685C15.2941 4.80581 15.1016 5.04288 14.8954 5.26451C14.7225 5.45048 14.5365 5.45167 14.3434 5.28352C14.1878 5.14805 14.0345 5.15875 13.8705 5.23896C13.7041 5.32036 13.612 5.43979 13.6263 5.64478C13.6417 5.86581 13.5122 6.03218 13.2953 6.04644C12.9644 6.06783 12.6292 6.06783 12.2983 6.04644C12.0832 6.03277 11.9513 5.86462 11.9667 5.64478C11.981 5.44038 11.8895 5.31977 11.7225 5.23896C11.558 5.15875 11.4047 5.1534 11.2496 5.28649C11.0571 5.45167 10.8675 5.4487 10.697 5.26273C10.4873 5.03456 10.2912 4.79036 10.1159 4.53546C9.97092 4.32453 10.0125 4.14271 10.2181 3.99477C10.375 3.88187 10.4142 3.73749 10.3761 3.56696C10.3351 3.38396 10.2466 3.24433 10.0327 3.20927C9.80693 3.17184 9.68453 3.02864 9.7178 2.80167C9.76593 2.47428 9.83901 2.14749 9.93289 1.8302C9.99647 1.6157 10.1741 1.53668 10.3952 1.59966C10.5889 1.65432 10.7315 1.59669 10.8473 1.45171C10.9668 1.30257 11.0077 1.14868 10.9002 0.960926C10.7867 0.762472 10.8295 0.57412 11.0297 0.460633C11.3185 0.29783 11.6215 0.157012 11.9287 0.0322355C12.123 -0.0461951 12.3102 0.0393656 12.3856 0.233065C12.4635 0.433301 12.6043 0.504602 12.7974 0.504602C12.9917 0.504602 13.1278 0.428548 13.2092 0.231283C13.2888 0.0375831 13.4652 -0.0515427 13.6673 0.030453C13.9679 0.152852 14.265 0.288323 14.5472 0.447561C14.7683 0.572337 14.8069 0.755342 14.6827 0.981127C14.587 1.15463 14.6316 1.29723 14.7362 1.43329C14.8467 1.57708 14.9816 1.6567 15.18 1.60263C15.4272 1.53549 15.5942 1.61511 15.6732 1.85218C15.7688 2.13857 15.8348 2.43507 15.9138 2.7268V2.7274ZM12.7867 1.71552C12.0856 1.72206 11.5134 2.29603 11.5134 2.99418C11.5134 3.70006 12.0992 4.27997 12.8075 4.27521C13.5039 4.27046 14.0808 3.69174 14.0814 2.99537C14.0826 2.2883 13.4961 1.70899 12.7867 1.71552Z" />
    <path d="M8.70297 8.7892C8.69881 9.56459 8.0678 10.1926 7.29894 10.1867C6.53009 10.1807 5.8967 9.54617 5.89551 8.78029C5.89373 8.00371 6.53722 7.37091 7.31974 7.37923C8.10167 7.38755 8.70773 8.00489 8.70357 8.7892H8.70297Z" />
  </svg>