<svg width="17" height="15" viewBox="0 0 17 15" fill="none" xmlns="http://www.w3.org/2000/svg">
<path fill-rule="evenodd" clip-rule="evenodd" d="M16.5018 7.22005C16.5018 7.49356 16.3932 7.75586 16.1998 7.94926C16.0064 8.14265 15.7441 8.2513 15.4706 8.2513H3.52253L7.95072 12.6774C8.0466 12.7733 8.12266 12.8871 8.17455 13.0124C8.22644 13.1377 8.25315 13.272 8.25315 13.4076C8.25315 13.5431 8.22644 13.6774 8.17455 13.8027C8.12266 13.928 8.0466 14.0418 7.95072 14.1377C7.85484 14.2336 7.74101 14.3096 7.61573 14.3615C7.49046 14.4134 7.35619 14.4401 7.22059 14.4401C7.085 14.4401 6.95073 14.4134 6.82545 14.3615C6.70018 14.3096 6.58635 14.2336 6.49047 14.1377L0.302968 7.95018C0.206932 7.85438 0.130737 7.74058 0.0787484 7.6153C0.0267601 7.49001 0 7.3557 0 7.22005C0 7.08441 0.0267601 6.9501 0.0787484 6.82481C0.130737 6.69952 0.206932 6.58572 0.302968 6.48993L6.49047 0.302428C6.68411 0.108787 6.94674 0 7.22059 0C7.49444 0 7.75708 0.108787 7.95072 0.302428C8.14436 0.496069 8.25315 0.758703 8.25315 1.03255C8.25315 1.3064 8.14436 1.56904 7.95072 1.76268L3.52253 6.1888H15.4706C15.7441 6.1888 16.0064 6.29745 16.1998 6.49085C16.3932 6.68425 16.5018 6.94655 16.5018 7.22005Z" fill="#0076BF"/>
</svg>
