<svg width="22" height="22" viewBox="0 0 22 22" fill="none" xmlns="http://www.w3.org/2000/svg">
<path d="M21.9997 4.76822C21.8131 5.30953 21.4288 5.50536 20.8634 5.50536C16.6934 5.49427 12.5215 5.49981 8.35148 5.49981C7.85263 5.49981 7.50343 5.26888 7.38334 4.84766C7.34823 4.72573 7.34454 4.59456 7.34454 4.46709C7.34084 3.3734 7.36301 2.27787 7.3353 1.18418C7.32052 0.615167 7.50158 0.214271 8.04108 0.00366211H21.2699C21.6376 0.121899 21.8796 0.367609 21.9997 0.733403V4.76822Z" fill="#EEEEEE"/>
<path d="M21.9994 13.0135C21.8128 13.5567 21.4285 13.7507 20.8631 13.7507C16.7115 13.7396 12.56 13.7377 8.40842 13.7507C7.81719 13.7525 7.31649 13.3849 7.33497 12.6792C7.36268 11.5411 7.34236 10.4031 7.34236 9.26508C7.34236 8.60554 7.70449 8.24529 8.36593 8.24529C12.5323 8.24529 16.6986 8.25083 20.8631 8.23975C21.4285 8.23975 21.8128 8.43373 21.9994 8.97688V13.0135Z" fill="#EEEEEE"/>
<path d="M21.9994 21.2603C21.8128 21.8034 21.4285 21.9974 20.8631 21.9974C16.7115 21.9863 12.56 21.9844 8.40842 21.9974C7.81719 21.9992 7.31649 21.6316 7.33497 20.9259C7.36268 19.7878 7.34236 18.6498 7.34236 17.5118C7.34236 16.8522 7.70449 16.492 8.36593 16.492C12.5323 16.492 16.6986 16.4975 20.8631 16.4865C21.4285 16.4865 21.8128 16.6804 21.9994 17.2236V21.2603Z" fill="#EEEEEE"/>
<path d="M4.77491 0C5.31813 0.186603 5.52138 0.570894 5.51214 1.13625C5.49182 2.25217 5.5066 3.36809 5.5066 4.48401C5.5066 5.12511 5.13521 5.49647 4.4959 5.49832C3.33739 5.49832 2.17703 5.49832 1.01852 5.49832C0.379208 5.49832 0.00966643 5.12696 0.00781872 4.48401C0.00597102 3.36809 0.0226004 2.25217 0.00042789 1.13625C-0.0106584 0.570894 0.19259 0.184755 0.737664 0H4.77491Z" fill="#EEEEEE"/>
<path d="M2.75529 8.24713C3.35025 8.24713 3.94337 8.24528 4.53833 8.24713C5.12221 8.24897 5.50283 8.63326 5.50468 9.21894C5.50653 10.4069 5.50653 11.5949 5.50468 12.7829C5.50468 13.3538 5.11851 13.7417 4.54942 13.7436C3.35395 13.7473 2.15848 13.7473 0.963014 13.7436C0.39392 13.7436 0.00959649 13.3538 0.00774878 12.7829C0.00590108 11.5875 0.00405337 10.3921 0.00774878 9.19677C0.00774878 8.63881 0.395768 8.25082 0.951928 8.24713C1.55243 8.24343 2.15479 8.24713 2.75529 8.24713Z" fill="#EEEEEE"/>
<path d="M0.00795122 19.2413C0.00795122 18.6464 0.00610352 18.0533 0.00795122 17.4584C0.00979893 16.8746 0.392275 16.4921 0.979846 16.4921C2.16792 16.4903 3.356 16.4903 4.54408 16.4921C5.11686 16.4921 5.50304 16.8782 5.50488 17.4473C5.50858 18.6427 5.50858 19.838 5.50488 21.0334C5.50488 21.6024 5.11502 21.9886 4.54408 21.9886C3.34861 21.9923 2.15314 21.9923 0.957673 21.9886C0.399665 21.9886 0.0153421 21.6006 0.00610352 21.0445C0.00610352 21.0297 0.00610352 21.0168 0.00610352 21.002C0.00610352 20.4145 0.00610352 19.8288 0.00610352 19.2413H0.00795122Z" fill="#EEEEEE"/>
</svg>
