<svg
    viewBox="0 0 16 20"
    fill="none"
    xmlns="http://www.w3.org/2000/svg"
  >
    <path d="M8.0072 0.00109775C8.80203 0.00109775 9.59687 4.22211e-05 10.3917 0.00109775C10.8253 0.00162551 11.075 0.254952 11.0761 0.696162C11.0776 1.2899 11.0781 1.88363 11.0761 2.47736C11.0745 2.90696 10.8233 3.16662 10.4051 3.16662C8.80255 3.16768 7.20054 3.16768 5.59803 3.16662C5.17723 3.16662 4.92496 2.9096 4.92342 2.48106C4.92136 1.88099 4.92136 1.2804 4.92342 0.680329C4.92496 0.259702 5.17517 0.00215327 5.58415 0.00109775C6.39183 -0.00101331 7.19952 0.000569984 8.00668 0.000569984L8.0072 0.00109775Z" />
    <path d="M15.9979 2.92607C15.9954 1.97873 15.311 1.27628 14.3934 1.26889C13.9387 1.26573 13.4834 1.26836 13.0282 1.26836H12.3069C12.3069 1.67105 12.3069 2.05209 12.3069 2.43314C12.3048 3.62377 11.5197 4.43389 10.3647 4.43494C8.7879 4.43547 7.21107 4.43547 5.63424 4.43494C4.47975 4.43389 3.69365 3.62272 3.69211 2.43314C3.69211 2.05209 3.69211 1.67105 3.69211 1.26836C3.00877 1.26836 2.35522 1.26784 1.70168 1.26836C0.657654 1.26889 0 1.9476 0 3.02476V17.2343C0 18.3251 0.654571 19.0012 1.71144 19.0012H14.287C15.3439 19.0012 15.999 18.3251 15.999 17.2348V8.11134C15.999 6.38292 16.0021 4.65449 15.9979 2.92607ZM13.301 13.2423C13.301 13.6919 12.946 14.0566 12.5083 14.0566H3.49173C3.05398 14.0566 2.69895 13.6919 2.69895 13.2423C2.69895 12.7926 3.05398 12.4279 3.49173 12.4279H12.5088C12.9465 12.4279 13.3016 12.7926 13.3016 13.2423H13.301ZM13.301 8.22534C13.301 8.67499 12.946 9.03968 12.5083 9.03968H3.49173C3.05398 9.03968 2.69895 8.67499 2.69895 8.22534C2.69895 7.77568 3.05398 7.411 3.49173 7.411H12.5088C12.9465 7.411 13.3016 7.77568 13.3016 8.22534H13.301Z" />
  </svg>