<svg
    viewBox="0 0 19 17"
    fill="none"
    xmlns="http://www.w3.org/2000/svg"
  >
    <path d="M19 5.12341C18.8896 5.35071 18.6948 5.47363 18.4735 5.58311C15.6138 6.99929 12.7559 8.41826 9.90171 9.84512C9.62014 9.98613 9.37939 9.98613 9.09783 9.84512C6.23252 8.41316 3.36304 6.98909 0.492627 5.56733C0.282031 5.46296 0.102979 5.33911 0 5.12341V4.827C0.102979 4.6113 0.282031 4.48745 0.492627 4.38308C3.36304 2.96133 6.23252 1.53772 9.09783 0.105762C9.37939 -0.0352539 9.62014 -0.0352539 9.90171 0.105762C12.7559 1.53262 15.6138 2.95159 18.4735 4.36777C18.6948 4.47725 18.8891 4.60017 19 4.82747V5.12388V5.12341Z" />
    <path d="M19.0002 16.2357C18.8523 16.5563 18.5976 16.6578 18.2525 16.6481C17.61 16.6305 16.9666 16.6435 16.3237 16.643C15.8742 16.6425 15.6618 16.4333 15.6604 15.9903C15.6595 15.6633 15.6544 15.3363 15.6613 15.0093C15.6771 14.2954 16.005 13.774 16.6535 13.4692C16.7732 13.4131 16.7741 13.3379 16.7741 13.2373C16.7732 11.4477 16.7755 9.65854 16.769 7.86895C16.7686 7.71494 16.8196 7.63933 16.9537 7.57764C17.2598 7.43662 17.5595 7.28076 17.8865 7.11841V7.34246C17.8865 9.30461 17.8883 11.2668 17.8828 13.2294C17.8828 13.3676 17.9245 13.4312 18.0488 13.4896C18.5034 13.7039 18.8003 14.0588 18.9358 14.5445C18.9552 14.615 18.9784 14.6841 18.9998 14.7541V16.2357H19.0002Z" />
    <path d="M15.6635 8.23557C15.6306 8.98611 15.7531 9.72319 15.4515 10.4283C15.1779 11.0675 14.733 11.561 14.1806 11.9637C13.2306 12.6562 12.1479 13.0176 10.9975 13.1925C9.51451 13.4179 8.05008 13.3293 6.61905 12.8645C5.67786 12.5588 4.82296 12.1028 4.1471 11.3602C3.6336 10.7957 3.34276 10.1388 3.33997 9.36741C3.33858 8.99817 3.33997 8.62893 3.33997 8.23696C3.4179 8.27175 3.47867 8.2968 3.53712 8.32556C5.23534 9.16702 6.93587 10.0038 8.62992 10.8536C9.21671 11.1482 9.78077 11.1491 10.3676 10.855C12.0616 10.0057 13.7621 9.16841 15.4604 8.32695C15.5193 8.29773 15.5805 8.27268 15.664 8.23511L15.6635 8.23557Z" />
  </svg>