<svg
    width="24"
    height="16"
    viewBox="0 0 19 15"
    fill="none"
    xmlns="http://www.w3.org/2000/svg"
  >
    <g clipPath="url(#clip0_471_1031)">
      <path d="M0 10.33C0.0780726 10.0904 0.126868 9.83778 0.240259 9.61328C0.704513 8.69408 1.49221 8.17803 2.58058 8.10363C3.1085 8.06773 3.642 8.09758 4.18386 8.09758C4.18386 8.13088 4.19315 8.16506 4.18246 8.19317C4.00773 8.65601 3.97938 9.13616 3.97985 9.62063C3.98078 11.0987 3.97752 12.5768 3.98217 14.0548C3.9831 14.3628 4.01145 14.6712 4.02771 14.9892C4.03236 14.9887 4.00262 14.9961 3.97334 14.9961C3.18843 14.9961 2.40352 15.0073 1.61954 14.9909C0.809539 14.9736 0.21377 14.4974 0.0325303 13.7594C0.0260242 13.7321 0.0111532 13.7066 0 13.6802C0 12.5634 0 11.4469 0 10.33H0Z" />
      <path d="M9.50057 14.9972C8.25187 14.9972 7.00271 14.9972 5.75401 14.9972C5.26885 14.9972 5.07831 14.822 5.07878 14.3747C5.08017 12.6428 5.07274 10.9103 5.08761 9.17836C5.09737 8.0537 6.11835 6.98181 7.31221 6.81094C7.4823 6.78672 7.6561 6.76985 7.82805 6.76942C9.00286 6.76769 10.1777 6.7612 11.352 6.77677C12.5445 6.79234 13.6974 7.74961 13.8736 8.85048C13.9015 9.0261 13.9173 9.20475 13.9177 9.3821C13.921 11.0566 13.9182 12.7314 13.9214 14.4059C13.9214 14.6083 13.8815 14.7969 13.6863 14.899C13.5645 14.9626 13.4075 14.9924 13.2657 14.9933C12.0105 15.0002 10.7558 14.9972 9.50057 14.9972Z" />
      <path d="M9.50572 1.7191e-05C11.3223 0.00607308 12.8089 1.38335 12.7973 3.0604C12.7857 4.76167 11.3567 6.13506 9.5006 6.13636C7.64313 6.13766 6.20343 4.75994 6.19971 3.04699C6.19692 1.36908 7.69424 -0.00560613 9.50572 1.7191e-05Z" />
      <path d="M14.9702 14.9933C14.9865 14.6758 15.0148 14.3735 15.0157 14.0707C15.0204 12.6034 15.0167 11.1362 15.0185 9.6689C15.019 9.16712 14.9962 8.66924 14.8141 8.18953C14.8043 8.16401 14.8094 8.13373 14.8062 8.08398C15.6227 8.1307 16.4424 7.98493 17.2343 8.2609C18.2539 8.61647 18.9877 9.56984 18.9951 10.5842C19.0026 11.5393 19.0016 12.4944 18.9961 13.4495C18.9909 14.3064 18.3157 14.9674 17.397 14.989C16.5823 15.0085 15.7663 14.9929 14.9702 14.9929V14.9933Z" />
      <path d="M3.71469 2.85941C5.07678 2.86677 6.19675 3.91184 6.17723 5.15719C6.15725 6.4272 5.05215 7.45626 3.70818 7.45626C2.35167 7.45626 1.21962 6.39778 1.23402 5.14335C1.24843 3.87724 2.36189 2.85206 3.71469 2.85941Z" />
      <path d="M15.2871 2.85938C16.6423 2.85678 17.7543 3.88412 17.7636 5.14721C17.7729 6.40467 16.6399 7.46012 15.2853 7.45623C13.9395 7.45234 12.8334 6.41894 12.8204 5.15326C12.8074 3.90402 13.9283 2.86198 15.2871 2.85938Z" />
    </g>
    <defs>
      <clipPath id="clip0_471_1031">
        <rect width="24" height="16" fill="white" />
      </clipPath>
    </defs>
  </svg>