<svg width="32" height="32" viewBox="0 0 32 32" fill="none" xmlns="http://www.w3.org/2000/svg">
<rect x="0.5" y="0.5" width="31" height="31" rx="15.5" stroke="#0076BF"/>
<path d="M19.7539 16.615H19.5796C15.9169 16.615 14.4271 16.615 10.7647 16.6138C10.6649 16.6138 10.5611 16.6135 10.4661 16.5885C10.1663 16.51 9.96836 16.221 10.0042 15.9324C10.044 15.6133 10.2903 15.3868 10.6162 15.3716C10.6766 15.3689 10.737 15.3697 10.7973 15.3697C14.4501 15.3697 15.9297 15.3697 19.582 15.3697H19.7555L19.8018 15.3052C19.7531 15.2798 19.6947 15.2634 19.6569 15.2271C18.5845 14.1895 17.5148 13.1488 16.4424 12.1112C16.2484 11.9233 16.1583 11.7109 16.2368 11.4489C16.3635 11.0251 16.8879 10.8615 17.2468 11.1321C17.2943 11.1681 17.3362 11.2106 17.3788 11.252C18.8303 12.6606 20.2818 14.0696 21.7333 15.4786C22.0895 15.8242 22.0887 16.1605 21.7313 16.5076C20.2694 17.9268 18.807 19.3451 17.3462 20.7654C17.1547 20.9517 16.939 21.0482 16.6661 20.9759C16.2154 20.8564 16.0428 20.3269 16.3406 19.9782C16.3756 19.9368 16.4162 19.9001 16.4557 19.8622C17.5229 18.8261 18.5897 17.7901 19.6589 16.756C19.6959 16.7201 19.7563 16.7064 19.8058 16.6826C19.7885 16.6599 19.7712 16.6377 19.7539 16.615Z" fill="#0076BF"/>
</svg>
