<svg
    width="13"
    height="11"
    viewBox="0 0 13 11"
    fill="black"
    xmlns="http://www.w3.org/2000/svg"
  >
    <path
      d="M10.5039 6.11472H10.3296C6.66685 6.11472 5.17711 6.11472 1.51474 6.11354C1.41494 6.11354 1.31112 6.11315 1.21615 6.08816C0.916349 6.00967 0.718361 5.72068 0.754176 5.43209C0.794015 5.11304 1.04029 4.88654 1.36625 4.87131C1.42661 4.86857 1.48697 4.86935 1.54733 4.86935C5.20005 4.86935 6.67973 4.86935 10.332 4.86935H10.5055L10.5518 4.80492C10.5031 4.77953 10.4447 4.76313 10.4069 4.72681C9.33446 3.68921 8.26484 2.64848 7.19241 1.61087C6.99844 1.42303 6.9083 1.21059 6.98677 0.94855C7.11353 0.524838 7.63788 0.361211 7.99683 0.63184C8.04432 0.667768 8.08617 0.710334 8.12882 0.751729C9.58033 2.16033 11.0318 3.56932 12.4833 4.97831C12.8395 5.32392 12.8387 5.66015 12.4813 6.00732C11.0194 7.42647 9.55699 8.84483 8.09623 10.2651C7.90468 10.4514 7.68898 10.5479 7.41615 10.4756C6.96544 10.3561 6.79281 9.82659 7.09059 9.47786C7.1256 9.43646 7.16625 9.39975 7.20568 9.36187C8.27289 8.32583 9.33969 7.28978 10.4089 6.25569C10.4459 6.21976 10.5063 6.2061 10.5558 6.18227C10.5385 6.15963 10.5212 6.13737 10.5039 6.11472Z"
      fill="black"
    />
  </svg>