<svg width="24" height="25" viewBox="0 0 24 25" fill="none" xmlns="http://www.w3.org/2000/svg">
<path d="M11.7173 24.0356C12.1722 24.0251 12.6088 23.8541 12.9498 23.5527C13.2908 23.2514 13.5143 22.8391 13.5806 22.3889H9.78174C9.84997 22.8514 10.0839 23.2733 10.4399 23.5762C10.7959 23.8791 11.2499 24.0423 11.7173 24.0356Z" fill="#0076BF"/>
<path d="M22.4421 19.5939L22.1966 19.3772C21.5 18.7565 20.8902 18.0447 20.3838 17.2611C19.8307 16.1796 19.4993 14.9985 19.4088 13.7872V10.2194C19.4059 9.78605 19.3672 9.35365 19.2933 8.92664C18.0699 8.67519 16.971 8.00871 16.1826 7.04003C15.3943 6.07136 14.9649 4.86002 14.9671 3.61108V3.15608C14.2131 2.785 13.4029 2.54097 12.5694 2.43386V1.52386C12.5694 1.26815 12.4678 1.02291 12.287 0.84209C12.1062 0.661274 11.8609 0.559692 11.6052 0.559692C11.3495 0.559692 11.1042 0.661274 10.9234 0.84209C10.7426 1.02291 10.641 1.26815 10.641 1.52386V2.46997C8.77461 2.73326 7.06645 3.6629 5.83191 5.08725C4.59738 6.51161 3.91984 8.33451 3.92437 10.2194V13.7872C3.83391 14.9985 3.50243 16.1796 2.94937 17.2611C2.45167 18.0428 1.85173 18.7544 1.16548 19.3772L0.919922 19.5939V21.6305H22.4421V19.5939Z" fill="#0076BF"/>
<path d="M20.3838 7.22222C22.3782 7.22222 23.9949 5.60547 23.9949 3.61111C23.9949 1.61675 22.3782 0 20.3838 0C18.3895 0 16.7727 1.61675 16.7727 3.61111C16.7727 5.60547 18.3895 7.22222 20.3838 7.22222Z" fill="#0076BF"/>
</svg>
