<svg
    width="23"
    height="23"
    viewBox="0 0 23 23"
    fill="none"
    xmlns="http://www.w3.org/2000/svg"
  >
    <path
      d="M10.6392 22.9161C11.073 22.9062 11.4892 22.7431 11.8144 22.4558C12.1395 22.1685 12.3525 21.7754 12.4158 21.3462H8.79382C8.85888 21.7871 9.08187 22.1894 9.42133 22.4782C9.76079 22.7669 10.1936 22.9226 10.6392 22.9161Z"
      fill="#0076BF"
    />
    <path
      d="M20.8645 18.6813L20.6304 18.4747C19.9662 17.8829 19.3848 17.2043 18.902 16.4572C18.3747 15.426 18.0587 14.3 17.9724 13.1451V9.74349C17.9696 9.3303 17.9328 8.91805 17.8623 8.51092C16.6959 8.27118 15.6482 7.63575 14.8965 6.71219C14.1449 5.78864 13.7355 4.63372 13.7377 3.44295V3.00915C13.0187 2.65534 12.2463 2.42269 11.4516 2.32056V1.45295C11.4516 1.20915 11.3547 0.97533 11.1823 0.802936C11.0099 0.630542 10.7761 0.533691 10.5323 0.533691C10.2885 0.533691 10.0547 0.630542 9.88229 0.802936C9.7099 0.97533 9.61305 1.20915 9.61305 1.45295V2.35499C7.83356 2.60602 6.20496 3.49235 5.02793 4.85037C3.8509 6.20839 3.20491 7.94638 3.20923 9.74349V13.1451C3.12299 14.3 2.80695 15.426 2.27964 16.4572C1.80513 17.2025 1.23313 17.881 0.578845 18.4747L0.344727 18.6813V20.6231H20.8645V18.6813Z"
      fill="#0076BF"
    />
    <path
      d="M18.9019 6.88583C20.8034 6.88583 22.3448 5.34438 22.3448 3.44291C22.3448 1.54145 20.8034 0 18.9019 0C17.0004 0 15.459 1.54145 15.459 3.44291C15.459 5.34438 17.0004 6.88583 18.9019 6.88583Z"
      fill="#0076BF"
    />
  </svg>