<svg width="22" height="23" viewBox="0 0 22 23" fill="none" xmlns="http://www.w3.org/2000/svg">
<path d="M16.3827 11.4285H5.60079C5.60079 11.9784 5.5943 12.486 5.60988 12.9929C5.61182 13.0533 5.72737 13.1254 5.80397 13.1663C6.76402 13.6804 7.27034 14.4723 7.24502 15.5648C7.21451 16.9104 6.04414 18.0094 4.67903 18.0016C3.30808 17.9944 2.16108 16.8916 2.13771 15.5407C2.11889 14.4541 2.62456 13.6706 3.58007 13.174C3.71768 13.1026 3.76377 13.0293 3.76117 12.8806C3.75209 12.4113 3.75533 11.9414 3.75858 11.472C3.76637 10.3542 4.52389 9.59672 5.64104 9.59413C7.0042 9.59088 8.36671 9.59348 9.72987 9.59348C9.81815 9.59348 9.90643 9.59348 10.0343 9.59348C10.0343 9.14818 10.0414 8.71521 10.0239 8.28354C10.022 8.23551 9.88176 8.17968 9.79738 8.15177C8.30569 7.65454 7.32876 6.65879 6.94188 5.13659C6.25641 2.44078 8.4829 -0.186875 11.2624 0.0104588C13.3689 0.160406 14.9605 1.70273 15.1604 3.85133C15.3435 5.81817 14.0504 7.64805 12.0998 8.18228C11.9473 8.22382 11.8889 8.28095 11.8934 8.44193C11.9044 8.81972 11.8973 9.19816 11.8973 9.59348C12.1414 9.59348 12.351 9.59348 12.5613 9.59348C13.8187 9.59348 15.0761 9.59218 16.3341 9.59348C17.4843 9.59542 18.2366 10.3452 18.2425 11.4941C18.2451 11.9394 18.2522 12.3854 18.2386 12.83C18.2327 13.0163 18.2873 13.1111 18.4619 13.1974C19.4239 13.6758 19.975 14.6969 19.8543 15.7368C19.7329 16.7819 18.9864 17.6433 17.9685 17.9133C16.7028 18.2495 15.3961 17.5848 14.9255 16.3651C14.4548 15.1461 14.9787 13.7875 16.1633 13.1942C16.3347 13.1085 16.3944 13.0163 16.3886 12.8287C16.3743 12.3607 16.384 11.892 16.384 11.4279L16.3827 11.4285Z" fill="white" fill-opacity="0.6"/>
<path d="M1.44637 17.7031C3.08735 19.9374 6.30701 19.9543 7.92592 17.7232C8.61659 18.3535 9.06968 19.1202 9.3105 20.0179C9.55912 20.9429 9.05345 21.8218 8.1239 22.0581C7.99148 22.0919 7.85127 22.1087 7.71496 22.1087C5.70267 22.112 3.69039 22.123 1.6781 22.1068C0.546681 22.0977 -0.211496 21.1311 0.0526973 20.0757C0.209785 19.4486 0.478523 18.8709 0.879032 18.3607C1.05235 18.14 1.24579 17.9349 1.44637 17.7031Z" fill="white" fill-opacity="0.6"/>
<path d="M14.0744 17.7234C15.6965 19.9558 18.9194 19.935 20.5526 17.7046C20.7571 17.9402 20.9681 18.1583 21.1505 18.3985C21.5529 18.9275 21.8256 19.5202 21.9658 20.17C22.1573 21.0599 21.5211 21.9609 20.6143 22.0849C20.4864 22.1024 20.3559 22.1108 20.2261 22.1108C18.2787 22.1121 16.3314 22.1141 14.384 22.1108C13.4473 22.1095 12.7605 21.5532 12.632 20.6893C12.6086 20.5328 12.6184 20.364 12.6508 20.2089C12.8579 19.2307 13.3318 18.403 14.0731 17.7234H14.0744Z" fill="white" fill-opacity="0.6"/>
</svg>
