<svg width="41" height="41" viewBox="0 0 41 41" fill="none" xmlns="http://www.w3.org/2000/svg">
<path d="M0.270587 34.3446C0.462725 33.7059 0.578853 33.0303 0.861781 32.4348C1.63667 30.8027 2.92674 29.7407 4.67815 29.2572C4.76683 29.2329 4.85551 29.2065 4.94313 29.1791C4.95369 29.1759 4.96214 29.1632 5.00859 29.1242V24.3228H19.2838V21.9454H12.2233C12.2148 21.8419 12.2043 21.7796 12.2043 21.7173C12.2043 19.7157 12.1863 17.713 12.2095 15.7114C12.2444 12.5792 14.8668 9.97367 18.0022 9.92828C18.4224 9.92194 18.8415 9.92828 19.3155 9.92828V17.0163H21.6687V9.98423C25.541 9.45004 28.2552 11.9616 28.7187 14.9281C28.7778 15.3029 28.7947 15.6882 28.7957 16.0683C28.8031 18.0034 28.7989 19.9395 28.7989 21.919H21.713V24.2964H35.9787V29.1442C39.5259 30.0183 41.1073 33.196 40.6545 35.9715C40.2037 38.7311 37.708 40.8858 34.865 40.9048C31.9692 40.9248 29.445 38.8197 28.9615 36.0137C28.4653 33.1316 30.1607 29.9803 33.5971 29.1548V26.7045H21.7172V29.1516C25.2222 30.0162 26.8226 33.2076 26.3433 36.0052C25.863 38.8102 23.3441 40.9206 20.4472 40.9048C17.6063 40.8889 15.1043 38.7395 14.6514 35.9799C14.1784 33.0989 15.8823 29.974 19.2923 29.159V26.7066H7.40293V29.1706C8.70355 29.4662 9.82049 30.0859 10.6703 31.1099C12.1441 32.8846 12.5453 34.8957 11.7281 37.0567C10.9184 39.1977 9.32325 40.492 7.05243 40.8266C3.7808 41.3091 0.890285 39.1407 0.339208 35.8669C0.328651 35.8057 0.293812 35.7487 0.269531 35.6906C0.269531 35.243 0.269531 34.7954 0.269531 34.3467L0.270587 34.3446Z" fill="#0076BF"/>
<path d="M21.054 0.443848C21.868 0.621206 22.6471 0.868241 23.328 1.38026C25.0224 2.65555 25.6759 4.85564 24.9348 6.84881C24.2053 8.80714 22.2544 10.0634 20.1662 9.9188C17.8151 9.75516 15.8832 7.8 15.766 5.46689C15.6435 3.02505 17.3348 0.910469 19.726 0.51458C19.802 0.501911 19.8748 0.468129 19.9487 0.443848H21.0551L21.054 0.443848Z" fill="#0076BF"/>
</svg>
