<svg width="85" height="85" viewBox="0 0 85 85" fill="none" xmlns="http://www.w3.org/2000/svg">
<path d="M39.8457 0C41.6174 0 43.3873 0 45.159 0C45.4002 0.0482414 45.638 0.121435 45.8809 0.141397C54.8072 0.858364 62.827 3.98241 69.5824 9.81962C82.1069 20.644 87.104 34.3745 84.1596 50.6984C80.6996 69.8752 63.5273 84.4208 44.0477 84.9797C33.7424 85.2758 24.4484 82.3298 16.3422 75.9403C7.81178 69.2148 2.55846 60.4598 0.638783 49.7452C0.365969 48.2264 0.209601 46.6877 0 45.159C0 43.3873 0 41.6174 0 39.8457C0.123099 38.8343 0.227899 37.8213 0.37096 36.8132C1.71007 27.4261 5.67752 19.3182 12.3581 12.591C18.7143 6.19154 26.3548 2.17752 35.2645 0.640446C36.7832 0.379277 38.3187 0.211264 39.8457 0ZM35.5706 44.3006C32.5496 41.273 29.7017 38.4118 26.8438 35.5589C25.5962 34.3146 24.2405 34.3179 22.9879 35.5689C20.7172 37.8362 18.4515 40.1086 16.1925 42.3876C14.9615 43.6285 14.9715 44.986 16.2208 46.2369C21.9881 52.0092 27.7588 57.7799 33.5311 63.5472C34.8137 64.8281 36.1727 64.8381 37.4453 63.5622C47.8804 53.1088 58.3122 42.6521 68.7423 32.192C70.1413 30.7897 70.1247 29.5188 68.7141 28.0998C66.5682 25.9422 64.4206 23.788 62.2713 21.6338C60.7476 20.1067 59.5166 20.105 58.0028 21.6188C50.7267 28.8949 43.4489 36.1694 36.1794 43.4505C35.9482 43.6818 35.7918 43.9879 35.5706 44.3006Z" fill="#40BC21"/>
<path d="M35.5705 44.3008C35.7917 43.9881 35.9481 43.682 36.1793 43.4508C43.4488 36.1697 50.7266 28.8935 58.0027 21.619C59.5165 20.1053 60.7475 20.1086 62.2713 21.634C64.4205 23.7882 66.5681 25.9425 68.714 28.1C70.1246 29.5173 70.1413 30.7899 68.7423 32.1922C58.3121 42.6523 47.8803 53.1074 37.4452 63.5625C36.171 64.8384 34.8136 64.8284 33.531 63.5475C27.7587 57.7801 21.988 52.0111 16.2207 46.2371C14.9714 44.9879 14.9614 43.6304 16.1924 42.3878C18.4514 40.1088 20.7171 37.8365 22.9878 35.5691C24.2404 34.3198 25.5961 34.3149 26.8438 35.5591C29.7016 38.412 32.5496 41.2733 35.5705 44.3008Z" fill="white"/>
</svg>
