<svg width="12" height="12" viewBox="0 0 12 12" fill="none" xmlns="http://www.w3.org/2000/svg">
<path d="M9.14986 2.85499C8.95486 2.65999 8.63986 2.65999 8.44486 2.85499L5.99986 5.29499L3.55486 2.84999C3.35986 2.65499 3.04486 2.65499 2.84986 2.84999C2.65486 3.04499 2.65486 3.35999 2.84986 3.55499L5.29486 5.99999L2.84986 8.44498C2.65486 8.63999 2.65486 8.95498 2.84986 9.14998C3.04486 9.34499 3.35986 9.34499 3.55486 9.14998L5.99986 6.70499L8.44486 9.14998C8.63986 9.34499 8.95486 9.34499 9.14986 9.14998C9.34486 8.95498 9.34486 8.63999 9.14986 8.44498L6.70486 5.99999L9.14986 3.55499C9.33986 3.36499 9.33986 3.04499 9.14986 2.85499Z" fill="white"/>
</svg>
