<svg viewBox="0 0 18 18" fill="none" xmlns="http://www.w3.org/2000/svg">
<path d="M15.8547 17.9994C15.4766 17.9648 15.0973 17.936 14.7198 17.8937C12.2316 17.6143 9.92249 16.8153 7.80066 15.4857C5.34711 13.9476 3.42255 11.9052 2.0258 9.37094C1.14572 7.77475 0.555669 6.07348 0.244498 4.27652C0.0906742 3.38537 0.0143494 2.48777 0.000258627 1.58489C-0.0144192 0.626823 0.596767 0.00161439 1.552 0.000440288C2.5771 -0.000146763 3.60279 -0.000146763 4.62789 0.000440288C5.56493 0.00102734 6.16143 0.564596 6.18961 1.50329C6.22132 2.55705 6.36868 3.58908 6.68631 4.59529C6.86538 5.16179 6.74737 5.65256 6.37221 6.11692C5.87551 6.73156 5.41345 7.37438 4.94317 8.00957C4.90971 8.05536 4.90149 8.15516 4.92849 8.20506C5.7528 9.75018 6.81137 11.101 8.25919 12.1119C8.75706 12.46 9.2884 12.7606 9.80859 13.0764C9.84851 13.1005 9.93658 13.094 9.97533 13.0658C10.6417 12.5686 11.3081 12.0708 11.9656 11.5618C12.3443 11.2683 12.7635 11.1749 13.2209 11.2759C13.7399 11.3904 14.2495 11.5571 14.772 11.6481C15.2781 11.7362 15.7954 11.799 16.3079 11.7984C17.134 11.7972 17.8016 12.1553 18 13.0782V16.7343C17.8996 16.9656 17.8268 17.2145 17.6924 17.4247C17.4745 17.7658 17.1164 17.9125 16.7342 18H15.8553L15.8547 17.9994Z" fill="#ACE3E7"/>
</svg>
