<svg width="32" height="32" viewBox="0 0 32 32" fill="none" xmlns="http://www.w3.org/2000/svg">
<rect x="31.5" y="31.5" width="31" height="31" rx="15.5" transform="rotate(-180 31.5 31.5)" stroke="#0076BF"/>
<path d="M12.2461 15.385H12.4204C16.0831 15.385 17.5729 15.385 21.2353 15.3862C21.3351 15.3862 21.4389 15.3865 21.5339 15.4115C21.8337 15.49 22.0316 15.779 21.9958 16.0676C21.956 16.3867 21.7097 16.6132 21.3838 16.6284C21.3234 16.6311 21.263 16.6303 21.2027 16.6303C17.5499 16.6303 16.0703 16.6303 12.418 16.6303H12.2445L12.1982 16.6948C12.2469 16.7202 12.3053 16.7366 12.3431 16.7729C13.4155 17.8105 14.4852 18.8512 15.5576 19.8888C15.7516 20.0767 15.8417 20.2891 15.7632 20.5511C15.6365 20.9749 15.1121 21.1385 14.7532 20.8679C14.7057 20.8319 14.6638 20.7894 14.6212 20.748C13.1697 19.3394 11.7182 17.9304 10.2667 16.5214C9.91051 16.1758 9.91132 15.8395 10.2687 15.4924C11.7306 14.0732 13.193 12.6549 14.6538 11.2346C14.8453 11.0483 15.061 10.9518 15.3339 11.0241C15.7846 11.1436 15.9572 11.6731 15.6594 12.0218C15.6244 12.0632 15.5838 12.0999 15.5443 12.1378C14.4771 13.1739 13.4103 14.2099 12.3411 15.244C12.3041 15.2799 12.2437 15.2936 12.1942 15.3174C12.2115 15.3401 12.2288 15.3623 12.2461 15.385Z" fill="#0076BF"/>
</svg>
