<svg
    width="13"
    height="11"
    viewBox="0 0 13 11"
    fill="none"
    xmlns="http://www.w3.org/2000/svg"
  >
    <path
      d="M2.99588 4.88528L3.17013 4.88528C6.8329 4.88528 8.32264 4.88528 11.985 4.88646C12.0848 4.88646 12.1886 4.88685 12.2836 4.91184C12.5834 4.99033 12.7814 5.27932 12.7456 5.56791C12.7057 5.88696 12.4595 6.11346 12.1335 6.12869C12.0731 6.13143 12.0128 6.13065 11.9524 6.13065C8.29971 6.13065 6.82003 6.13065 3.16771 6.13065L2.99427 6.13065L2.948 6.19508C2.99669 6.22047 3.05504 6.23687 3.09286 6.27319C4.1653 7.31079 5.23492 8.35152 6.30735 9.38913C6.50131 9.57697 6.59146 9.78941 6.51298 10.0514C6.38622 10.4752 5.86188 10.6388 5.50292 10.3682C5.45544 10.3322 5.41359 10.2897 5.37093 10.2483C3.91942 8.83967 2.46791 7.43068 1.01641 6.02169C0.660269 5.67608 0.661074 5.33985 1.01842 4.99268C2.48039 3.57353 3.94276 2.15517 5.40353 0.734857C5.59508 0.54858 5.81077 0.452121 6.08361 0.524368C6.53431 0.643866 6.70695 1.17341 6.40916 1.52214C6.37415 1.56354 6.33351 1.60024 6.29407 1.63813C5.22687 2.67417 4.16007 3.71021 3.09085 4.74431C3.05383 4.78023 2.99347 4.7939 2.94397 4.81772C2.96128 4.84037 2.97858 4.86263 2.99588 4.88528Z"
      fill="#0076BF"
    />
  </svg>