<svg width="21" height="22" viewBox="0 0 21 22" fill="none" xmlns="http://www.w3.org/2000/svg">
<g clip-path="url(#clip0_43_1602)">
<path d="M20.8406 9.21588C20.1867 5.2601 17.1574 1.93211 13.2705 0.893997C7.47703 -0.653037 1.58664 2.81628 0.295193 8.66916C-0.644092 12.9251 0.67255 16.509 4.03974 19.2842C5.66856 20.6269 7.58437 21.3254 9.69078 21.4924C9.74391 21.4968 9.79594 21.5149 9.84851 21.5264H11.1608C11.5447 21.4738 11.9314 21.4349 12.3126 21.367C14.7547 20.9326 16.7981 19.7778 18.4259 17.9092C19.9397 16.1715 20.7826 14.1413 20.9666 11.841C20.971 11.7873 20.989 11.7353 21.0005 11.6827V10.3701C20.948 9.98556 20.9041 9.59935 20.8412 9.21643L20.8406 9.21588ZM10.1278 16.9582C9.4498 16.9527 8.88677 16.3835 8.8813 15.6965C8.87527 14.9899 9.42899 14.4119 10.118 14.4053C10.8256 14.3988 11.4039 14.968 11.4061 15.6741C11.4083 16.3769 10.8245 16.9631 10.1278 16.9576V16.9582ZM13.5147 8.84117C13.1741 9.47335 12.6844 9.9746 12.1335 10.4222C11.9812 10.546 11.829 10.6709 11.6849 10.8045C11.3119 11.1508 11.1246 11.5835 11.1055 12.0908C11.1 12.2382 11.1011 12.3861 11.0978 12.5335C11.089 12.9235 10.9138 13.1476 10.5271 13.2149C10.3277 13.2495 10.1185 13.2582 9.91698 13.2412C9.48485 13.2056 9.27837 13.0079 9.2362 12.5756C9.11735 11.3666 9.42241 10.3192 10.4219 9.54238C10.7193 9.3112 11.0134 9.07454 11.2878 8.81707C11.5819 8.54152 11.7797 8.20516 11.789 7.78389C11.7983 7.34728 11.6077 7.029 11.2238 6.8263C10.3716 6.37709 9.33697 6.62745 8.78874 7.41411C8.43986 7.91481 8.10906 8.02493 7.62435 7.80087C7.1747 7.59325 6.97972 7.13089 7.14129 6.59677C7.37516 5.8227 7.94201 5.36308 8.65346 5.05412C9.19567 4.81855 9.76855 4.73857 10.3551 4.73912C11.0343 4.7435 11.6904 4.85362 12.3093 5.14889C13.7935 5.85667 14.2952 7.39165 13.5142 8.84062L13.5147 8.84117Z" fill="#AEAEAE"/>
</g>
<defs>
<clipPath id="clip0_43_1602">
<rect width="21" height="21" fill="white" transform="translate(0 0.525879)"/>
</clipPath>
</defs>
</svg>
