<svg width="230" height="129" viewBox="0 0 244 149" fill="none" xmlns="http://www.w3.org/2000/svg">
<g clip-path="url(#clip0_471_811)">
<path d="M244 126.956H0V127.077H244V126.956Z" fill="#EBEBEB"/>
<path d="M80.3198 134.488H64.1572V134.609H80.3198V134.488Z" fill="#EBEBEB"/>
<path d="M126.314 133.16H122.073V133.281H126.314V133.16Z" fill="#EBEBEB"/>
<path d="M34.9653 131.1H25.6006V131.221H34.9653V131.1Z" fill="#EBEBEB"/>
<path d="M202.901 130.28H190.174V130.401H202.901V130.28Z" fill="#EBEBEB"/>
<path d="M185.825 130.28H174.387V130.401H185.825V130.28Z" fill="#EBEBEB"/>
<path d="M219.556 136.138H173.84V136.259H219.556V136.138Z" fill="#EBEBEB"/>
<path d="M155.477 125.502H166.969V75.2056H155.477V125.502Z" fill="#F0F0F0"/>
<path d="M114.168 126.961H164.769V125.507H114.168V126.961Z" fill="#F0F0F0"/>
<path d="M155.477 75.2104H111.957V125.507H155.477V75.2104Z" fill="#F5F5F5"/>
<path d="M150.958 78.0317H116.476V99.2359H150.958V78.0317Z" fill="#F0F0F0"/>
<path d="M150.958 101.477H116.476V122.681H150.958V101.477Z" fill="#F0F0F0"/>
<path d="M142.657 81.7223H124.782C122.439 81.7223 120.541 79.8235 120.541 77.4805H146.898C146.898 79.8235 145 81.7223 142.657 81.7223Z" fill="#F5F5F5"/>
<path d="M142.657 105.171H124.782C122.439 105.171 120.541 103.273 120.541 100.93H146.898C146.898 103.273 145 105.171 142.657 105.171Z" fill="#F5F5F5"/>
<path d="M202.413 125.502H213.905V75.2056H202.413V125.502Z" fill="#F0F0F0"/>
<path d="M161.099 126.961H211.7V125.507H161.099V126.961Z" fill="#F0F0F0"/>
<path d="M202.413 75.2104H158.893V125.507H202.413V75.2104Z" fill="#F5F5F5"/>
<path d="M197.894 78.0317H163.412V99.2359H197.894V78.0317Z" fill="#F0F0F0"/>
<path d="M197.894 101.477H163.412V122.681H197.894V101.477Z" fill="#F0F0F0"/>
<path d="M189.588 81.7223H171.713C169.37 81.7223 167.472 79.8235 167.472 77.4805H193.829C193.829 79.8235 191.931 81.7223 189.588 81.7223Z" fill="#F5F5F5"/>
<path d="M189.588 105.171H171.713C169.37 105.171 167.472 103.273 167.472 100.93H193.829C193.829 103.273 191.931 105.171 189.588 105.171Z" fill="#F5F5F5"/>
<path d="M61.4537 24.9385L81.1396 24.9385V2.17723L61.4537 2.17723V24.9385Z" fill="#E6E6E6"/>
<path d="M59.214 24.9385L80.6177 24.9385V2.17723L59.214 2.17723V24.9385Z" fill="#F5F5F5"/>
<path d="M78.8267 23.1472V3.97363L61.0098 3.97363V23.1472H78.8267Z" fill="white"/>
<path d="M74.503 18.4954V17.7973C74.503 12.7257 70.3941 8.61572 65.3237 8.61572V9.31374C65.3237 14.3854 69.4327 18.4954 74.503 18.4954Z" fill="#F5F5F5"/>
<path d="M139.88 69.2646L213.91 69.2646V-0.000213623L139.88 -0.000213623V69.2646Z" fill="#E6E6E6"/>
<path d="M137.587 69.2646L212.836 69.2646V-0.000213623L137.587 -0.000213623V69.2646Z" fill="#F0F0F0"/>
<path d="M139.88 71.73L213.91 71.73V69.2601L139.88 69.2601V71.73Z" fill="#E6E6E6"/>
<path d="M133.761 71.73L209.01 71.73V69.2601L133.761 69.2601V71.73Z" fill="#F0F0F0"/>
<path d="M209.62 65.5407V3.71484L140.793 3.71484V65.5407H209.62Z" fill="#FAFAFA"/>
<path d="M190.105 65.5456L178.642 3.71973H159.756L171.219 65.5456H190.105Z" fill="white"/>
<path d="M208.137 44.5706C208.263 44.5706 208.366 44.4534 208.366 44.307V6.13566C208.366 5.98922 208.263 5.87207 208.137 5.87207C208.01 5.87207 207.907 5.98922 207.907 6.13566V44.3021C207.907 44.4486 208.01 44.5657 208.137 44.5657V44.5706Z" fill="#F0F0F0"/>
<path d="M167.16 65.5456L155.696 3.71973H148.337L159.796 65.5456H167.16Z" fill="white"/>
<path d="M141.203 65.5456V3.71973H140.793V65.5456H141.203Z" fill="#E6E6E6"/>
<path opacity="0.4" d="M136.82 8.47404H210.85L211.148 5.16455H137.118L136.82 8.47404Z" fill="#E6E6E6"/>
<path opacity="0.4" d="M136.82 12.286H210.85L211.148 8.97168H137.118L136.82 12.286Z" fill="#E6E6E6"/>
<path opacity="0.4" d="M136.82 16.0937H210.85L211.148 12.7842H137.118L136.82 16.0937Z" fill="#E6E6E6"/>
<path opacity="0.4" d="M136.82 19.9057H210.85L211.148 16.5913H137.118L136.82 19.9057Z" fill="#E6E6E6"/>
<path opacity="0.4" d="M136.82 23.7133H210.85L211.148 20.4038H137.118L136.82 23.7133Z" fill="#E6E6E6"/>
<path opacity="0.4" d="M136.82 27.5253H210.85L211.148 24.2109H137.118L136.82 27.5253Z" fill="#E6E6E6"/>
<path opacity="0.4" d="M136.82 31.3329H210.85L211.148 28.0234H137.118L136.82 31.3329Z" fill="#E6E6E6"/>
<path opacity="0.4" d="M136.82 35.1449H210.85L211.148 31.8306H137.118L136.82 35.1449Z" fill="#E6E6E6"/>
<path opacity="0.4" d="M136.82 38.9526H210.85L211.148 35.6431H137.118L136.82 38.9526Z" fill="#E6E6E6"/>
<path d="M47.502 62.0698H62.8594V44.4436H47.502V62.0698Z" fill="#E6E6E6"/>
<path d="M45.7596 62.0698H62.3369V44.4436H45.7596V62.0698Z" fill="#F5F5F5"/>
<path d="M60.9512 60.6788V45.8301H47.1505V60.6788H60.9512Z" fill="white"/>
<path d="M57.6082 53.5231V52.9862C57.6082 51.0239 56.0173 49.4277 54.0507 49.4277C52.0889 49.4277 50.4932 51.019 50.4932 52.9862V53.5231C50.4932 55.4854 52.084 57.0766 54.0507 57.0766C56.0124 57.0766 57.6082 55.4854 57.6082 53.5231Z" fill="#F5F5F5"/>
<path d="M85.8051 55.7534H106.892V31.4546L85.8051 31.4546V55.7534Z" fill="#E6E6E6"/>
<path d="M83.414 55.7534H106.262V31.4546L83.414 31.4546V55.7534Z" fill="#F5F5F5"/>
<path d="M104.349 53.8352V33.3682H85.3269V53.8352H104.349Z" fill="white"/>
<path d="M95.6334 39.8114L99.2446 46.0691C99.5959 46.6842 99.1567 47.4456 98.4491 47.4456H91.2267C90.5191 47.4456 90.0751 46.6793 90.4313 46.0691L94.0425 39.8114C94.3939 39.1963 95.282 39.1963 95.6334 39.8114Z" fill="#F5F5F5"/>
<path d="M43.9295 126.956H55.5195L55.5195 90.4053H43.9295L43.9295 126.956Z" fill="#E6E6E6"/>
<path d="M46.1306 126.956H43.9297V120.693H48.4388L46.1306 126.956Z" fill="#F0F0F0"/>
<path d="M87.2396 126.956H98.8296V90.4053H87.2396V126.956Z" fill="#E6E6E6"/>
<path d="M43.9348 123.114H89.1626V90.405H43.9348L43.9348 123.114Z" fill="#F0F0F0"/>
<path d="M45.6377 92.4556V115.285H65.8067V92.4556H45.6377Z" fill="#E6E6E6"/>
<path d="M67.2852 92.4556V115.285H87.4542V92.4556H67.2852Z" fill="#E6E6E6"/>
<path d="M75.3763 94.2079H79.3681C81.1005 94.2079 82.7597 93.4952 83.9504 92.2358H70.7939C71.9847 93.4952 73.6439 94.2079 75.3763 94.2079Z" fill="#F0F0F0"/>
<path d="M53.5237 94.2079H57.5156C59.248 94.2079 60.9072 93.4952 62.0979 92.2358H48.9414C50.1321 93.4952 51.7913 94.2079 53.5237 94.2079Z" fill="#F0F0F0"/>
<path d="M86.9616 126.956H89.1624V120.693H84.6533L86.9616 126.956Z" fill="#F0F0F0"/>
<path d="M75.0298 85.5094C75.0298 86.8957 76.1522 88.0184 77.5381 88.0184C78.924 88.0184 80.0464 86.8957 80.0464 85.5094C80.0464 84.1232 78.924 83.0005 77.5381 83.0005C76.1522 83.0005 75.0298 84.1232 75.0298 85.5094Z" fill="#E0E0E0"/>
<path d="M78.6802 86.388C80.0655 86.388 81.1885 85.2647 81.1885 83.8791C81.1885 82.4934 80.0655 81.3701 78.6802 81.3701C77.2949 81.3701 76.1719 82.4934 76.1719 83.8791C76.1719 85.2647 77.2949 86.388 78.6802 86.388Z" fill="#E0E0E0"/>
<path d="M62.4395 85.9098C62.4395 87.2961 63.5619 88.4188 64.9478 88.4188C66.3337 88.4188 67.4561 87.2961 67.4561 85.9098C67.4561 84.5236 66.3337 83.4009 64.9478 83.4009C63.5619 83.4009 62.4395 84.5236 62.4395 85.9098Z" fill="#E0E0E0"/>
<path d="M82.0373 87.3642C83.7379 87.3642 85.1166 85.9852 85.1166 84.2842C85.1166 82.5831 83.7379 81.2041 82.0373 81.2041C80.3366 81.2041 78.958 82.5831 78.958 84.2842C78.958 85.9852 80.3366 87.3642 82.0373 87.3642Z" fill="#E0E0E0"/>
<path d="M72.8584 81.4482C72.8584 83.1469 74.2346 84.5283 75.9377 84.5283C77.6408 84.5283 79.017 83.1518 79.017 81.4482C79.017 79.7447 77.6408 78.3682 75.9377 78.3682C74.2346 78.3682 72.8584 79.7447 72.8584 81.4482Z" fill="#E0E0E0"/>
<path d="M67.978 82.2388C67.978 83.9374 69.3542 85.3188 71.0573 85.3188C72.7604 85.3188 74.1366 83.9423 74.1366 82.2388C74.1366 80.5352 72.7604 79.1587 71.0573 79.1587C69.3542 79.1587 67.978 80.5352 67.978 82.2388Z" fill="#E0E0E0"/>
<path d="M70.0425 84.7188C70.0425 86.3442 71.3601 87.6671 72.99 87.6671C74.6199 87.6671 75.9375 86.3491 75.9375 84.7188C75.9375 83.0884 74.6199 81.7705 72.99 81.7705C71.3601 81.7705 70.0425 83.0884 70.0425 84.7188Z" fill="#E0E0E0"/>
<path d="M64.9478 84.5283C64.9478 86.2758 66.363 87.6913 68.11 87.6913C69.857 87.6913 71.2722 86.2758 71.2722 84.5283C71.2722 82.7808 69.857 81.3652 68.11 81.3652C66.363 81.3652 64.9478 82.7808 64.9478 84.5283Z" fill="#E0E0E0"/>
<path d="M86.9468 85.5093C86.9468 85.5093 86.6003 90.4052 73.395 90.4052C60.1897 90.4052 59.8433 85.5093 59.8433 85.5093H86.9517H86.9468Z" fill="#F0F0F0"/>
<path d="M122 149C174.256 149 216.618 146.526 216.618 143.474C216.618 140.423 174.256 137.949 122 137.949C69.7439 137.949 27.3818 140.423 27.3818 143.474C27.3818 146.526 69.7439 149 122 149Z" fill="#F5F5F5"/>
<path d="M153.988 16.0885C153.71 15.166 153.344 14.2873 152.895 13.4526L153.573 11.2268L149.181 6.83368L146.956 7.51217C146.122 7.06798 145.243 6.697 144.321 6.41877L143.228 4.36377H137.016L135.922 6.41877C135 6.697 134.122 7.0631 133.287 7.51217L131.062 6.83368L126.67 11.2268L127.348 13.4526C126.904 14.2873 126.533 15.166 126.255 16.0885L124.201 17.1819V23.3957L126.255 24.4891C126.533 25.4117 126.899 26.2903 127.348 27.125L126.67 29.3509L131.062 33.744L133.287 33.0655C134.122 33.5097 135 33.8807 135.922 34.1589L137.016 36.2139H143.228L144.321 34.1589C145.243 33.8807 146.122 33.5146 146.956 33.0655L149.181 33.744L153.573 29.3509L152.895 27.125C153.339 26.2903 153.71 25.4117 153.988 24.4891L156.043 23.3957V17.1819L153.988 16.0885ZM140.124 29.1166C135.249 29.1166 131.296 25.1628 131.296 20.2864C131.296 15.41 135.249 11.4562 140.124 11.4562C144.999 11.4562 148.952 15.41 148.952 20.2864C148.952 25.1628 144.999 29.1166 140.124 29.1166Z" fill="#407BFF"/>
<path opacity="0.2" d="M153.988 16.0885C153.71 15.166 153.344 14.2873 152.895 13.4526L153.573 11.2268L149.181 6.83368L146.956 7.51217C146.122 7.06798 145.243 6.697 144.321 6.41877L143.228 4.36377H137.016L135.922 6.41877C135 6.697 134.122 7.0631 133.287 7.51217L131.062 6.83368L126.67 11.2268L127.348 13.4526C126.904 14.2873 126.533 15.166 126.255 16.0885L124.201 17.1819V23.3957L126.255 24.4891C126.533 25.4117 126.899 26.2903 127.348 27.125L126.67 29.3509L131.062 33.744L133.287 33.0655C134.122 33.5097 135 33.8807 135.922 34.1589L137.016 36.2139H143.228L144.321 34.1589C145.243 33.8807 146.122 33.5146 146.956 33.0655L149.181 33.744L153.573 29.3509L152.895 27.125C153.339 26.2903 153.71 25.4117 153.988 24.4891L156.043 23.3957V17.1819L153.988 16.0885ZM140.124 29.1166C135.249 29.1166 131.296 25.1628 131.296 20.2864C131.296 15.41 135.249 11.4562 140.124 11.4562C144.999 11.4562 148.952 15.41 148.952 20.2864C148.952 25.1628 144.999 29.1166 140.124 29.1166Z" fill="white"/>
<path d="M140.129 17.3623C138.514 17.3623 137.206 18.6705 137.206 20.2862C137.206 21.9019 138.514 23.21 140.129 23.21C141.744 23.21 143.052 21.9019 143.052 20.2862C143.052 18.6705 141.744 17.3623 140.129 17.3623Z" fill="#407BFF"/>
<path d="M198.216 25.9487C197.82 24.6357 197.293 23.3714 196.659 22.1804L197.63 19.0027L191.35 12.7205L188.173 13.6919C186.982 13.0476 185.723 12.5253 184.405 12.1299L182.849 9.19629H173.967L172.405 12.1299C171.093 12.5253 169.829 13.0476 168.638 13.6919L165.461 12.7205L159.181 19.0027L160.152 22.1804C159.517 23.3763 158.99 24.6357 158.595 25.9487L155.657 27.5107V36.3946L158.59 37.9566C158.985 39.2745 159.512 40.5339 160.147 41.7249L159.176 44.9026L165.456 51.1848L168.638 50.2134C169.829 50.8528 171.088 51.38 172.401 51.7754L173.962 54.7139H182.844L184.405 51.7803C185.723 51.3849 186.982 50.8626 188.168 50.2183L191.35 51.1896L197.63 44.9075L196.659 41.7298C197.293 40.5388 197.82 39.2794 198.216 37.9615L201.153 36.3995V27.5156L198.216 25.9536V25.9487ZM178.403 48.051C169.512 48.051 162.309 40.8414 162.309 31.9527C162.309 23.0639 169.516 15.8494 178.403 15.8494C187.289 15.8494 194.502 23.059 194.502 31.9527C194.502 40.8463 187.294 48.051 178.403 48.051Z" fill="#407BFF"/>
<path d="M178.408 18.0996C170.775 18.0996 164.563 24.3134 164.563 31.9477C164.563 39.582 170.775 45.7958 178.408 45.7958C186.04 45.7958 192.252 39.582 192.252 31.9477C192.252 24.3134 186.04 18.0996 178.408 18.0996ZM178.408 43.9507C171.79 43.9507 166.408 38.5667 166.408 31.9477C166.408 25.3287 171.79 19.9447 178.408 19.9447C185.025 19.9447 190.407 25.3287 190.407 31.9477C190.407 38.5667 185.025 43.9507 178.408 43.9507Z" fill="#407BFF"/>
<path opacity="0.2" d="M178.408 18.0996C170.775 18.0996 164.563 24.3134 164.563 31.9477C164.563 39.582 170.775 45.7958 178.408 45.7958C186.04 45.7958 192.252 39.582 192.252 31.9477C192.252 24.3134 186.04 18.0996 178.408 18.0996ZM178.408 43.9507C171.79 43.9507 166.408 38.5667 166.408 31.9477C166.408 25.3287 171.79 19.9447 178.408 19.9447C185.025 19.9447 190.407 25.3287 190.407 31.9477C190.407 38.5667 185.025 43.9507 178.408 43.9507Z" fill="black"/>
<path d="M146.6 55.5777C146.414 55.5777 146.258 55.4264 146.258 55.236V54.5575C146.258 54.372 146.41 54.2158 146.6 54.2158C146.79 54.2158 146.941 54.3671 146.941 54.5575V55.236C146.941 55.4215 146.79 55.5777 146.6 55.5777Z" fill="#407BFF"/>
<path d="M141.31 46.8013C140.998 46.5963 140.759 46.3132 140.612 45.9715C140.539 45.8006 140.339 45.7176 140.168 45.7909C139.997 45.8641 139.914 46.0642 139.988 46.2351C140.188 46.6988 140.515 47.0942 140.939 47.3675C140.998 47.4065 141.061 47.4212 141.125 47.4212C141.237 47.4212 141.344 47.3675 141.408 47.265C141.51 47.1088 141.466 46.8989 141.31 46.7964V46.8013Z" fill="#407BFF"/>
<path d="M140.129 42.5594C140.315 42.5594 140.471 42.4081 140.471 42.2177V40.9144C140.471 40.729 140.32 40.5728 140.129 40.5728C139.939 40.5728 139.788 40.7241 139.788 40.9144V42.2177C139.788 42.4032 139.939 42.5594 140.129 42.5594Z" fill="#407BFF"/>
<path d="M143.662 47.0986H142.359C142.174 47.0986 142.018 47.25 142.018 47.4403C142.018 47.6307 142.169 47.782 142.359 47.782H143.662C143.848 47.782 144.004 47.6307 144.004 47.4403C144.004 47.25 143.852 47.0986 143.662 47.0986Z" fill="#407BFF"/>
<path d="M140.471 44.8242V43.5209C140.471 43.3354 140.32 43.1792 140.129 43.1792C139.939 43.1792 139.788 43.3305 139.788 43.5209V44.8242C139.788 45.0097 139.939 45.1659 140.129 45.1659C140.32 45.1659 140.471 45.0145 140.471 44.8242Z" fill="#407BFF"/>
<path d="M146.917 49.3051C146.893 49.1196 146.722 48.9878 146.536 49.0122C146.351 49.0366 146.219 49.2074 146.244 49.3929C146.253 49.471 146.258 49.554 146.258 49.6321V50.6474C146.258 50.8329 146.41 50.9891 146.6 50.9891C146.79 50.9891 146.941 50.8378 146.941 50.6474V49.6321C146.941 49.5198 146.937 49.4124 146.922 49.3051H146.917Z" fill="#407BFF"/>
<path d="M146.6 51.6138C146.414 51.6138 146.258 51.7651 146.258 51.9555V53.2588C146.258 53.4442 146.41 53.6004 146.6 53.6004C146.79 53.6004 146.941 53.4491 146.941 53.2588V51.9555C146.941 51.77 146.79 51.6138 146.6 51.6138Z" fill="#407BFF"/>
<path d="M146.307 47.9531C145.971 47.5723 145.536 47.3039 145.043 47.177C144.863 47.1282 144.677 47.2404 144.629 47.421C144.58 47.6016 144.692 47.7871 144.873 47.8359C145.229 47.9287 145.551 48.1239 145.795 48.4022C145.863 48.4803 145.956 48.5193 146.049 48.5193C146.127 48.5193 146.21 48.49 146.273 48.4363C146.415 48.3143 146.429 48.0995 146.302 47.958L146.307 47.9531Z" fill="#407BFF"/>
<path d="M140.129 39.938C139.944 39.938 139.788 39.7867 139.788 39.5964V38.9179C139.788 38.7324 139.939 38.5762 140.129 38.5762C140.32 38.5762 140.471 38.7275 140.471 38.9179V39.5964C140.471 39.7818 140.32 39.938 140.129 39.938Z" fill="#407BFF"/>
<path d="M162.684 80.1504H49.6929V81.9613H162.684V80.1504Z" fill="#407BFF"/>
<path d="M162.685 81.9614H187.202V80.1505H162.685V81.9614Z" fill="#407BFF"/>
<path opacity="0.2" d="M162.685 81.9614H187.202V80.1505H162.685V81.9614Z" fill="black"/>
<path d="M179.018 83.8993H57.8815L53.8311 81.9614H183.068L179.018 83.8993Z" fill="#407BFF"/>
<path opacity="0.6" d="M179.018 83.8993H57.8815L53.8311 81.9614H183.068L179.018 83.8993Z" fill="white"/>
<path d="M61.5415 83.8994V141.664H63.0933L65.0453 83.8994H61.5415Z" fill="#407BFF"/>
<path d="M79.8608 83.8994V141.664H81.4127L83.3647 83.8994H79.8608Z" fill="#407BFF"/>
<path d="M179.018 83.8994V141.664H177.466L175.514 83.8994H179.018Z" fill="#407BFF"/>
<path d="M160.698 83.8994V141.664H159.146L157.194 83.8994H160.698Z" fill="#407BFF"/>
<path d="M123.825 58.2285L118.726 79.0031L118.584 80.1502H153.764L153.905 79.0031L159 58.2285H123.825Z" fill="#407BFF"/>
<path opacity="0.3" d="M123.825 58.2285L118.726 79.0031L118.584 80.1502H153.764L153.905 79.0031L159 58.2285H123.825Z" fill="black"/>
<path d="M157.922 58.2236H122.742L117.647 79.0031H152.822L157.922 58.2236Z" fill="#407BFF"/>
<path d="M152.075 78.0559L156.711 59.1753H123.488L118.857 78.0559H152.075Z" fill="white"/>
<path d="M143.657 79.0029L143.511 80.15H104.778L104.92 79.0029H143.657Z" fill="#407BFF"/>
<path opacity="0.6" d="M143.657 79.0029L143.511 80.15H104.778L104.92 79.0029H143.657Z" fill="white"/>
<path d="M70.4868 76.3723C70.4868 74.864 69.2912 73.6193 67.7393 73.3948V72.8334C67.7393 72.7016 67.6271 72.5942 67.4856 72.5942H62.2152C62.0737 72.5942 61.9614 72.7016 61.9614 72.8334V80.1504H67.7442V79.3499C69.2961 79.1302 70.4917 77.8806 70.4917 76.3723H70.4868ZM67.7393 78.4029V74.3368C68.7397 74.5467 69.4864 75.3765 69.4864 76.3674C69.4864 77.3583 68.7349 78.193 67.7393 78.398V78.4029Z" fill="#407BFF"/>
<path d="M169.121 80.1504H174.021L172.571 69.4165H169.121V80.1504Z" fill="#263238"/>
<path d="M161.938 80.1503H171.215L172.942 67.5859H163.666L161.938 80.1503Z" fill="#407BFF"/>
<path opacity="0.3" d="M161.938 80.1503H171.215L172.942 67.5859H163.666L161.938 80.1503Z" fill="black"/>
<path d="M160.698 80.1503H170.356L172.083 67.5859H162.426L160.698 80.1503Z" fill="#407BFF"/>
<path opacity="0.4" d="M169.502 79.1592L170.956 68.5767H163.28L161.826 79.1592H169.502Z" fill="white"/>
<path d="M96.3997 61.6013L95.9995 62.0357L95.5701 62.5238C95.2822 62.8509 94.9992 63.1926 94.721 63.5391C94.1744 64.2323 93.6425 64.9401 93.1545 65.6674C92.1687 67.1171 91.3245 68.6303 90.7243 70.1776C90.4266 70.9538 90.1875 71.7299 90.0313 72.5109C89.9532 72.9599 89.8995 73.1552 89.88 73.3456C89.8556 73.5311 89.8507 73.6628 89.88 73.8044C89.9093 74.0826 90.2509 74.5317 90.8755 74.9076C91.1781 75.1028 91.5343 75.2688 91.9101 75.4299C92.1004 75.508 92.2956 75.5812 92.4957 75.6495C92.686 75.7178 92.9203 75.7862 93.0618 75.8448V78.5392C92.7299 78.588 92.4811 78.6271 92.1883 78.6417C91.9052 78.6612 91.6222 78.6661 91.3391 78.6612C90.7682 78.6515 90.1826 78.5783 89.5775 78.4367C88.9772 78.2903 88.3526 78.0657 87.7328 77.6948C87.1228 77.3238 86.5031 76.8064 86.0346 76.1132C85.5661 75.425 85.2684 74.6098 85.1464 73.8386C85.1074 73.6384 85.0976 73.453 85.083 73.2626C85.0684 73.0673 85.0684 72.8867 85.0732 72.7061V72.4328C85.083 72.3449 85.0928 72.2863 85.0976 72.2082L85.1416 71.7836C85.2684 70.6511 85.5076 69.548 85.8443 68.4985C86.508 66.3898 87.4742 64.4568 88.6112 62.68C89.1773 61.7868 89.7922 60.9374 90.451 60.1174C90.778 59.7074 91.1147 59.3071 91.466 58.9117C91.6417 58.7116 91.8174 58.5163 92.0077 58.326C92.2029 58.1258 92.3639 57.955 92.6128 57.7158L96.4046 61.6111L96.3997 61.6013Z" fill="#B55B52"/>
<path d="M92.0615 75.7763L94.3356 74.1118L95.6337 78.788C95.6337 78.788 93.6182 79.5349 92.0762 78.5293L92.0615 75.7763Z" fill="#B55B52"/>
<path d="M97.4928 72.9844L98.381 76.8991L95.6287 78.7833L94.3354 74.1071L97.4928 72.9844Z" fill="#B55B52"/>
<path d="M111.874 43.6576C111.772 43.9456 111.845 44.2336 112.035 44.3019C112.225 44.3654 112.46 44.1848 112.562 43.8968C112.665 43.6088 112.591 43.3208 112.401 43.2525C112.211 43.1841 111.977 43.3696 111.874 43.6576Z" fill="#263238"/>
<path d="M111.821 44.2241C111.821 44.2241 111.899 46.1229 112.343 47.1822C111.665 47.4799 110.869 46.9625 110.869 46.9625L111.821 44.229V44.2241Z" fill="#A02724"/>
<path d="M111.406 41.6955C111.44 41.7053 111.479 41.7102 111.518 41.6955C112.279 41.471 112.782 41.8761 112.802 41.8956C112.88 41.9591 112.992 41.9493 113.055 41.8712C113.119 41.7931 113.109 41.6809 113.036 41.6174C113.007 41.593 112.367 41.0658 111.416 41.3489C111.318 41.3782 111.264 41.4759 111.294 41.5735C111.313 41.6321 111.352 41.676 111.406 41.6906V41.6955Z" fill="#263238"/>
<path d="M101.172 44.7222C101.719 47.4996 102.261 52.5907 100.318 54.4456C100.318 54.4456 101.08 57.267 106.238 57.267C111.913 57.267 108.951 54.4505 108.951 54.4505C105.852 53.7085 105.935 51.4095 106.472 49.252L101.172 44.727V44.7222Z" fill="#B55B52"/>
<path d="M99.5765 55.4117C99.1714 54.5184 98.7225 53.4983 99.6497 53.1761C100.67 52.8246 106.247 52.4634 108.175 53.1273C110.098 53.7862 109.551 55.5972 109.551 55.5972L99.5765 55.4117Z" fill="#263238"/>
<path d="M119.063 60.1758C120.253 62.3284 121.537 64.5445 122.84 66.6727C124.143 68.8107 125.499 70.9145 126.954 72.8524C127.315 73.3454 127.686 73.8042 128.061 74.2631C128.247 74.5022 128.442 74.7024 128.632 74.922L128.92 75.2442L128.993 75.3272L129.028 75.3662L129.037 75.376C129.037 75.376 129.062 75.4053 129.076 75.4248C129.179 75.5615 129.477 75.7518 129.872 75.9032C130.272 76.0594 130.765 76.1619 131.297 76.2497C133.439 76.5572 136.016 76.401 138.427 76.1667L139.168 78.7538C138.509 79.0467 137.895 79.2663 137.241 79.486C136.597 79.7056 135.943 79.896 135.269 80.0571C133.927 80.3793 132.541 80.6087 131.033 80.6233C130.277 80.6331 129.491 80.5696 128.647 80.389C127.808 80.1987 126.885 79.8911 125.992 79.2029L125.665 78.9344L125.587 78.8661L125.538 78.8173L125.441 78.7245L125.06 78.3487C124.811 78.0997 124.543 77.8508 124.314 77.5921C123.845 77.0795 123.367 76.5719 122.942 76.0447C121.19 73.9507 119.663 71.7785 118.233 69.5575C117.516 68.4446 116.828 67.3219 116.174 66.1846C115.51 65.0375 114.871 63.9148 114.251 62.7043L119.058 60.1709L119.063 60.1758Z" fill="#B55B52"/>
<path d="M93.5205 55.3046C89.963 56.1198 85.8784 65.8286 85.8784 65.8286L93.0276 70.7294C93.0276 70.7294 95.736 66.9415 97.7515 62.6997C99.8596 58.2578 97.161 54.4699 93.5205 55.3046Z" fill="#407BFF"/>
<path opacity="0.2" d="M96.0679 61.4937L92.686 70.4947L93.0228 70.729C93.0228 70.729 94.4868 68.674 96.0679 65.9063V61.4985V61.4937Z" fill="black"/>
<path d="M114.797 55.4999C114.797 55.4999 118.838 60.0687 115.022 88.3312H94.7112C94.5697 85.212 96.5315 69.9972 93.5254 55.3046C93.5254 55.3046 97.0048 54.6066 100.323 54.4455C102.919 54.3186 106.677 54.2357 108.956 54.4455C111.962 54.7189 114.797 55.4999 114.797 55.4999Z" fill="#407BFF"/>
<path opacity="0.2" d="M112.538 63.6709C112.606 63.7539 113.05 68.3422 116.549 72.3693C116.632 70.5486 116.662 68.9134 116.657 67.4539L112.538 63.6758V63.6709Z" fill="black"/>
<path d="M110.786 58.5797C110.283 62.1772 117.369 71.3637 117.369 71.3637L124.489 66.4629C124.489 66.4629 122.517 61.4011 119.189 58.0818C115.393 54.294 111.327 54.6649 110.786 58.5797Z" fill="#407BFF"/>
<path d="M137.602 76.1866L140.5 75.0005L143.482 77.2507C143.482 77.2507 140.632 79.7695 138.046 78.7932L137.597 76.1866H137.602Z" fill="#B55B52"/>
<path d="M142.428 74.8784L144.614 76.4404L143.482 77.2507L140.5 75.0004L142.428 74.8784Z" fill="#B55B52"/>
<path d="M102.436 39.6893C101.416 43.321 100.64 45.3906 101.797 47.841C103.544 51.5263 108.492 51.4238 110.576 48.168C112.45 45.2393 113.797 39.7967 110.815 37.1706C107.872 34.5835 103.456 36.0577 102.436 39.6844V39.6893Z" fill="#B55B52"/>
<path d="M110.166 39.7235C108.687 43.8921 106.984 48.4707 102.778 47.6067C100.064 47.0454 99.8546 42.6767 98.8737 40.69C98.0148 38.9425 98.0636 35.4378 99.8302 35.3988C99.0347 34.237 103.08 29.9855 105.837 32.2308C106.545 31.2546 111.645 28.3795 115.422 32.9435C118.994 37.2585 117.247 40.8657 110.166 39.7284V39.7235Z" fill="#263238"/>
<path d="M106.872 42.3886C106.75 43.3697 107.033 44.3655 107.468 45.0587C108.117 46.1032 109.068 45.703 109.415 44.6389C109.727 43.6773 109.761 41.9786 108.858 41.3001C107.965 40.6314 107.014 41.2708 106.877 42.3886H106.872Z" fill="#B55B52"/>
<path d="M138.046 138.905C138.534 138.905 139.002 138.837 139.163 138.617C139.217 138.539 139.261 138.412 139.158 138.222C139.1 138.119 139.002 138.046 138.875 138.012C138.246 137.841 136.918 138.598 136.86 138.627C136.826 138.646 136.811 138.681 136.816 138.72C136.821 138.759 136.85 138.788 136.889 138.793C137.133 138.842 137.602 138.9 138.055 138.9L138.046 138.905ZM138.646 138.168C138.709 138.168 138.768 138.173 138.822 138.188C138.905 138.212 138.963 138.251 138.997 138.315C139.061 138.427 139.036 138.481 139.017 138.515C138.841 138.759 137.88 138.764 137.172 138.666C137.523 138.485 138.202 138.168 138.646 138.168Z" fill="#407BFF"/>
<path d="M136.899 138.798C136.899 138.798 136.923 138.798 136.938 138.788C137.397 138.583 138.304 137.763 138.236 137.334C138.221 137.231 138.148 137.109 137.899 137.08C137.714 137.065 137.548 137.114 137.402 137.236C136.918 137.631 136.816 138.656 136.811 138.7C136.811 138.734 136.821 138.764 136.85 138.783C136.865 138.793 136.884 138.798 136.904 138.798H136.899ZM137.826 137.26C137.826 137.26 137.86 137.26 137.88 137.26C138.041 137.275 138.051 137.338 138.055 137.363C138.099 137.621 137.48 138.266 137.011 138.549C137.06 138.251 137.197 137.636 137.514 137.377C137.611 137.299 137.714 137.26 137.826 137.26Z" fill="#407BFF"/>
<path d="M132.482 138.71H136.279L137.143 129.914H133.341L132.482 138.71Z" fill="#B55B52"/>
<path d="M136.494 138.271H132.346C132.19 138.271 132.058 138.378 132.024 138.529L131.272 141.907C131.194 142.259 131.463 142.591 131.819 142.581C133.317 142.556 135.479 142.469 137.358 142.469C139.559 142.469 141.457 142.591 144.034 142.591C145.59 142.591 146.025 141.014 145.371 140.872C142.399 140.223 139.973 140.155 137.407 138.569C137.128 138.398 136.821 138.271 136.494 138.271Z" fill="#263238"/>
<path opacity="0.2" d="M137.138 129.914L136.699 134.449H132.897L133.342 129.914H137.138Z" fill="black"/>
<path d="M122.825 138.906C123.215 138.906 123.591 138.847 123.738 138.657C123.801 138.578 123.85 138.437 123.738 138.232C123.679 138.125 123.581 138.051 123.455 138.022C122.903 137.89 121.849 138.608 121.805 138.642C121.776 138.661 121.761 138.696 121.766 138.735C121.771 138.769 121.8 138.798 121.834 138.808C122.03 138.857 122.435 138.915 122.825 138.915V138.906ZM123.298 138.183C123.337 138.183 123.376 138.183 123.411 138.193C123.489 138.212 123.542 138.251 123.577 138.315C123.659 138.461 123.611 138.525 123.596 138.544C123.435 138.759 122.659 138.759 122.093 138.666C122.42 138.466 122.957 138.183 123.303 138.183H123.298Z" fill="#407BFF"/>
<path d="M121.859 138.798C121.859 138.798 121.888 138.798 121.903 138.788C122.298 138.574 123.054 137.744 122.976 137.319C122.962 137.241 122.903 137.109 122.688 137.085C122.547 137.07 122.42 137.104 122.308 137.202C121.869 137.563 121.776 138.657 121.771 138.705C121.771 138.74 121.786 138.769 121.81 138.788C121.825 138.798 121.844 138.803 121.859 138.803V138.798ZM122.625 137.261C122.625 137.261 122.654 137.261 122.664 137.261C122.781 137.275 122.791 137.329 122.796 137.353C122.845 137.602 122.361 138.232 121.966 138.53C122.01 138.207 122.132 137.568 122.415 137.339C122.479 137.285 122.547 137.261 122.62 137.261H122.625Z" fill="#407BFF"/>
<path d="M117.506 138.71H121.303L123.211 129.914H119.414L117.506 138.71Z" fill="#B55B52"/>
<path d="M121.571 138.271H117.306C117.15 138.271 117.018 138.378 116.984 138.53L116.232 141.908C116.154 142.259 116.427 142.591 116.788 142.581C118.277 142.557 119.004 142.469 120.878 142.469C122.034 142.469 123.513 142.591 125.109 142.591C126.705 142.591 126.91 141.014 126.261 140.873C123.333 140.233 123.128 139.35 122.191 138.505C122.02 138.354 121.8 138.271 121.576 138.271H121.571Z" fill="#263238"/>
<g opacity="0.2">
<path d="M119.414 129.914H123.211L122.225 134.449H118.428L119.414 129.914Z" fill="black"/>
</g>
<path d="M115.022 88.3359C115.022 88.3359 143.472 91.3477 143.165 105.864C142.843 120.962 137.982 132.521 137.982 132.521H132.341C132.341 132.521 132.629 123.315 132.438 108.447C132.38 103.995 123.386 102.521 114.597 102.003C107.009 101.554 100.348 96.7805 97.4 89.771L96.7949 88.3359H115.022Z" fill="#263238"/>
<path d="M139.358 131.008C139.388 131.008 138.997 133.678 138.997 133.678H131.17L130.96 131.296L139.358 131.008Z" fill="#407BFF"/>
<path d="M108.932 88.3359C108.932 88.3359 129.555 95.1794 130.077 103.644C131.033 119.234 123.391 132.521 123.391 132.521H117.696C117.696 132.521 119.858 125.931 120.634 111.81C121.61 94.0616 88.5089 111.781 94.7114 88.3359H108.937H108.932Z" fill="#263238"/>
<path d="M125.109 131.008C125.138 131.008 124.391 133.678 124.391 133.678H116.564L116.705 131.296L125.104 131.008H125.109Z" fill="#407BFF"/>
<path d="M123.806 103.277H92.0908C92.0908 101.276 93.711 99.6553 95.7118 99.6553H120.19C122.191 99.6553 123.811 101.276 123.811 103.277H123.806Z" fill="#407BFF"/>
<path d="M93.5549 103.277L88.7725 143.377H89.7973L95.8582 103.277H93.5549Z" fill="#407BFF"/>
<path opacity="0.4" d="M93.5549 103.277L88.7725 143.377H89.7973L95.8582 103.277H93.5549Z" fill="black"/>
<path d="M99.9526 103.277L99.8599 143.377H100.88L102.261 103.277H99.9526Z" fill="#407BFF"/>
<path opacity="0.4" d="M99.9526 103.277L99.8599 143.377H100.88L102.261 103.277H99.9526Z" fill="black"/>
<path d="M122.337 103.277L127.119 143.377H126.095L120.034 103.277H122.337Z" fill="#407BFF"/>
<path opacity="0.4" d="M122.337 103.277L127.119 143.377H126.095L120.034 103.277H122.337Z" fill="black"/>
<path d="M115.94 103.277L116.032 143.377H115.012L113.631 103.277H115.94Z" fill="#407BFF"/>
<path opacity="0.4" d="M115.94 103.277L116.032 143.377H115.012L113.631 103.277H115.94Z" fill="black"/>
</g>
<defs>
<clipPath id="clip0_471_811">
<rect width="244" height="149" fill="white"/>
</clipPath>
</defs>
</svg>
