<svg
    viewBox="0 0 19 20"
    fill="none"
    xmlns="http://www.w3.org/2000/svg"
  >
    <path d="M14.1487 9.87012H4.83698C4.83698 10.345 4.83138 10.7834 4.84483 11.2212C4.84651 11.2733 4.9463 11.3356 5.01245 11.3709C5.84159 11.8149 6.27887 12.4988 6.257 13.4423C6.23065 14.6045 5.21988 15.5536 4.04092 15.5468C2.85692 15.5407 1.86632 14.5882 1.84614 13.4216C1.82988 12.4831 2.2666 11.8065 3.09181 11.3776C3.21066 11.3159 3.25046 11.2526 3.24822 11.1242C3.24037 10.7189 3.24318 10.313 3.24598 9.90768C3.25271 8.94232 3.90693 8.28809 4.87174 8.28585C6.04902 8.28304 7.22573 8.28528 8.40301 8.28528C8.47925 8.28528 8.55549 8.28528 8.66593 8.28528C8.66593 7.90071 8.6721 7.52678 8.65696 7.15398C8.65528 7.11249 8.53419 7.06428 8.46131 7.04017C7.17304 6.61075 6.32932 5.75078 5.9952 4.43615C5.4032 2.10795 7.32608 -0.161392 9.7266 0.00903263C11.5458 0.138533 12.9204 1.47054 13.0931 3.32615C13.2511 5.02479 12.1344 6.60514 10.4498 7.06652C10.318 7.1024 10.2676 7.15174 10.2715 7.29077C10.281 7.61704 10.2749 7.94387 10.2749 8.28528C10.4857 8.28528 10.6667 8.28528 10.8484 8.28528C11.9343 8.28528 13.0202 8.28416 14.1066 8.28528C15.1 8.28697 15.7498 8.93447 15.7548 9.92674C15.7571 10.3113 15.7632 10.6965 15.7515 11.0805C15.7464 11.2414 15.7935 11.3232 15.9443 11.3978C16.7751 11.8109 17.2511 12.6928 17.1468 13.5909C17.042 14.4935 16.3973 15.2374 15.5182 15.4706C14.4251 15.761 13.2966 15.1869 12.8901 14.1335C12.4837 13.0807 12.9361 11.9074 13.9592 11.395C14.1072 11.321 14.1588 11.2414 14.1537 11.0794C14.1414 10.6752 14.1498 10.2704 14.1498 9.86956L14.1487 9.87012Z" />
    <path d="M1.24914 15.2891C2.66635 17.2187 5.44697 17.2332 6.84512 15.3064C7.44161 15.8508 7.83291 16.5129 8.0409 17.2882C8.25561 18.0871 7.8189 18.8461 7.01611 19.0502C6.90174 19.0793 6.78065 19.0939 6.66292 19.0939C4.92504 19.0967 3.18716 19.1062 1.44927 19.0922C0.472134 19.0844 -0.182656 18.2496 0.0455114 17.3381C0.181178 16.7965 0.41327 16.2976 0.759165 15.857C0.908847 15.6664 1.07591 15.4892 1.24914 15.2891Z" />
    <path d="M12.1552 15.3068C13.5562 17.2347 16.3396 17.2168 17.7501 15.2905C17.9267 15.494 18.1089 15.6824 18.2664 15.8898C18.614 16.3467 18.8494 16.8585 18.9705 17.4197C19.1359 18.1883 18.5865 18.9664 17.8033 19.0735C17.6929 19.0886 17.5802 19.0959 17.4681 19.0959C15.7863 19.0971 14.1045 19.0987 12.4226 19.0959C11.6137 19.0948 11.0206 18.6144 10.9096 17.8682C10.8894 17.7331 10.8978 17.5873 10.9258 17.4534C11.1046 16.6085 11.5139 15.8937 12.1541 15.3068H12.1552Z" />
  </svg>