<svg width="20" height="20" viewBox="0 0 20 20" fill="none" xmlns="http://www.w3.org/2000/svg">
<path d="M8.41659 16.7502C10.2655 16.7498 12.0612 16.1308 13.5176 14.9918L18.0968 19.571L19.5697 18.0981L14.9905 13.5189C16.1301 12.0623 16.7495 10.2662 16.7499 8.41683C16.7499 3.82204 13.0114 0.0834961 8.41659 0.0834961C3.82179 0.0834961 0.083252 3.82204 0.083252 8.41683C0.083252 13.0116 3.82179 16.7502 8.41659 16.7502ZM8.41659 2.16683C11.8635 2.16683 14.6666 4.96995 14.6666 8.41683C14.6666 11.8637 11.8635 14.6668 8.41659 14.6668C4.96971 14.6668 2.16659 11.8637 2.16659 8.41683C2.16659 4.96995 4.96971 2.16683 8.41659 2.16683Z" fill="#808080"/>
</svg>
