<svg width="14" height="14" viewBox="0 0 14 14" fill="none" xmlns="http://www.w3.org/2000/svg">
<path d="M6.02324 11.7959C7.30416 11.7956 8.54817 11.3668 9.55718 10.5778L12.7296 13.75L13.75 12.7296L10.5776 9.55741C11.3671 8.54835 11.7962 7.30412 11.7965 6.02293C11.7965 2.83988 9.20646 0.25 6.02324 0.25C2.84002 0.25 0.25 2.83988 0.25 6.02293C0.25 9.20598 2.84002 11.7959 6.02324 11.7959ZM6.02324 1.69323C8.4112 1.69323 10.3532 3.6351 10.3532 6.02293C10.3532 8.41076 8.4112 10.3526 6.02324 10.3526C3.63528 10.3526 1.69331 8.41076 1.69331 6.02293C1.69331 3.6351 3.63528 1.69323 6.02324 1.69323Z" fill="#777777"/>
</svg>
