<svg
    viewBox="0 0 23 22"
    fill="none"
    xmlns="http://www.w3.org/2000/svg"
  >
    <path
      d="M8.88321 0.00128908H13.6543C13.9379 0.116017 14.0783 0.319046 14.1188 0.618112C14.2334 1.4747 14.3699 2.32807 14.4872 3.18466C14.5064 3.32452 14.5667 3.38704 14.6886 3.45279C15.2207 3.74025 15.7475 4.03803 16.2671 4.34547C16.3857 4.41573 16.4718 4.43957 16.6057 4.38608C17.4274 4.05672 18.2537 3.73767 19.078 3.4154C19.5531 3.22978 19.7632 3.30003 20.0223 3.7351C20.7181 4.903 21.4125 6.07154 22.1076 7.23945C22.3654 7.67258 22.3236 7.89107 21.9227 8.19594C21.2217 8.72897 20.5219 9.26329 19.8175 9.79181C19.7055 9.8756 19.681 9.95682 19.685 10.096C19.7022 10.68 19.7035 11.2652 19.687 11.8492C19.683 11.9942 19.7035 12.0825 19.8235 12.1721C20.5226 12.6955 21.2157 13.2272 21.9108 13.7557C22.315 14.0632 22.3608 14.2817 22.1063 14.7103C21.4085 15.8853 20.7108 17.0603 20.0123 18.2346C19.7652 18.6503 19.5392 18.7251 19.08 18.5453C18.2484 18.2204 17.4161 17.8969 16.5865 17.5675C16.4718 17.5218 16.3936 17.5321 16.2863 17.5959C15.7535 17.9104 15.2148 18.2153 14.6721 18.5131C14.568 18.5704 14.5051 18.6175 14.4879 18.7444C14.3759 19.5727 14.2493 20.399 14.1333 21.2266C14.0903 21.534 14.0286 21.8234 13.6755 21.942C13.6635 21.9459 13.6622 21.98 13.6562 22H8.88519C8.87128 21.9762 8.86333 21.9381 8.84345 21.931C8.56514 21.8331 8.46375 21.6229 8.42598 21.3555C8.30472 20.4924 8.17152 19.6313 8.05159 18.7683C8.03369 18.64 7.98333 18.5762 7.86604 18.5124C7.32201 18.2172 6.78394 17.9111 6.25051 17.5965C6.14317 17.5334 6.06497 17.5205 5.94967 17.5662C5.12667 17.893 4.30101 18.2133 3.47668 18.5356C2.98367 18.7283 2.77892 18.6613 2.51452 18.2179C1.82272 17.0564 1.13158 15.8943 0.44044 14.7322C0.169418 14.2759 0.210502 14.0696 0.637246 13.7448C1.3264 13.2201 2.0129 12.6929 2.70669 12.1747C2.82663 12.0851 2.85114 11.9981 2.84717 11.8524C2.83193 11.2614 2.83392 10.669 2.84916 10.078C2.85247 9.94586 2.82199 9.87109 2.71862 9.7931C2.01489 9.26329 1.31579 8.72897 0.615379 8.19465C0.223092 7.89559 0.176045 7.66806 0.420561 7.25556C1.1223 6.07477 1.82404 4.89397 2.52711 3.71383C2.76633 3.31163 3.00156 3.23365 3.44355 3.40638C4.27517 3.73123 5.10745 4.05414 5.93642 4.38543C6.06034 4.43506 6.14184 4.42153 6.25648 4.3545C6.78925 4.04061 7.33394 3.74541 7.86737 3.43216C7.94622 3.38576 8.0264 3.28585 8.04032 3.20077C8.17616 2.34032 8.30538 1.47792 8.42134 0.614889C8.4611 0.316468 8.59562 0.108927 8.88519 0L8.88321 0.00128908ZM7.30677 10.9513C7.25442 13.0325 9.02501 14.7754 11.2416 14.8224C13.3826 14.8675 15.1532 13.1756 15.2207 11.0197C15.2857 8.94103 13.531 7.18208 11.3012 7.1447C9.16748 7.1086 7.35183 8.74315 7.30743 10.9513H7.30677Z"
      fill="#0076BF"
    />
  </svg>