<svg width="24" height="24" viewBox="0 0 24 24" fill="none" xmlns="http://www.w3.org/2000/svg">
<path d="M9.39674 0.00140626H14.6015C14.9109 0.126564 15.0642 0.34805 15.1083 0.674304C15.2333 1.60877 15.3822 2.53971 15.5102 3.47417C15.5311 3.62675 15.5969 3.69496 15.7299 3.76668C16.3104 4.08027 16.8851 4.40512 17.4519 4.74052C17.5813 4.81716 17.6752 4.84317 17.8212 4.78481C18.7176 4.42551 19.6191 4.07746 20.5183 3.7259C21.0366 3.52339 21.2658 3.60004 21.5484 4.07465C22.3075 5.34872 23.0651 6.6235 23.8234 7.89758C24.1046 8.37008 24.059 8.60844 23.6217 8.94103C22.8569 9.52252 22.0935 10.1054 21.3251 10.682C21.2029 10.7734 21.1762 10.862 21.1805 11.0139C21.1993 11.6509 21.2007 12.2893 21.1827 12.9264C21.1783 13.0846 21.2007 13.1809 21.3316 13.2786C22.0942 13.8496 22.8504 14.4297 23.6087 15.0062C24.0496 15.3416 24.0995 15.58 23.8219 16.0476C23.0607 17.3294 22.2995 18.6112 21.5376 19.8923C21.268 20.3458 21.0215 20.4274 20.5205 20.2312C19.6133 19.8768 18.7053 19.5239 17.8003 19.1646C17.6752 19.1146 17.5899 19.1259 17.4728 19.1955C16.8916 19.5386 16.3039 19.8712 15.7119 20.1961C15.5984 20.2586 15.5297 20.31 15.5109 20.4485C15.3887 21.352 15.2507 22.2534 15.1242 23.1562C15.0772 23.4916 15.0099 23.8073 14.6246 23.9367C14.6116 23.9409 14.6102 23.9782 14.6037 24H9.3989C9.38372 23.974 9.37505 23.9325 9.35336 23.9248C9.04975 23.8179 8.93915 23.5887 8.89795 23.2969C8.76566 22.3554 8.62036 21.416 8.48951 20.4745C8.47 20.3346 8.41506 20.265 8.28711 20.1954C7.69362 19.8733 7.10663 19.5393 6.52471 19.1962C6.4076 19.1273 6.3223 19.1132 6.19652 19.1632C5.2987 19.5196 4.39798 19.8691 3.49871 20.2207C2.96088 20.4309 2.73751 20.3578 2.44908 19.874C1.69439 18.607 0.940416 17.3392 0.186446 16.0715C-0.109214 15.5737 -0.0643953 15.3487 0.401143 14.9943C1.15294 14.4219 1.90185 13.8468 2.65872 13.2815C2.78956 13.1837 2.81631 13.0888 2.81197 12.9299C2.79534 12.2851 2.79751 11.6389 2.81414 10.9942C2.81775 10.85 2.7845 10.7685 2.67173 10.6834C1.90402 10.1054 1.14138 9.52252 0.377288 8.93962C-0.0506605 8.61337 -0.101985 8.36516 0.16476 7.91516C0.930296 6.62702 1.69583 5.33888 2.46281 4.05145C2.72378 3.61269 2.9804 3.52761 3.46257 3.71605C4.36979 4.07043 5.27773 4.4227 6.18206 4.78411C6.31724 4.83825 6.40616 4.82348 6.53122 4.75036C7.11242 4.40793 7.70663 4.0859 8.28855 3.74418C8.37458 3.69355 8.46204 3.58457 8.47723 3.49175C8.62542 2.55307 8.76638 1.61228 8.89289 0.670788C8.93626 0.345238 9.083 0.118829 9.3989 0L9.39674 0.00140626ZM7.67699 11.9469C7.61988 14.2173 9.55143 16.1186 11.9695 16.1699C14.3051 16.2191 16.2367 14.3734 16.3104 12.0214C16.3813 9.75385 14.4671 7.835 12.0345 7.79422C9.70685 7.75484 7.72615 9.53798 7.67771 11.9469H7.67699Z" fill="#0076BF"/>
</svg>
