<svg width="39" height="39" viewBox="0 0 39 39" fill="none" xmlns="http://www.w3.org/2000/svg">
<path d="M0.269531 32.16C0.269531 23.9448 0.269531 15.7286 0.269531 7.51343C0.29234 7.44501 0.326058 7.37757 0.334983 7.30716C0.819922 3.62798 3.92789 0.846272 7.63881 0.838339C15.4196 0.820488 23.2005 0.822472 30.9813 0.838339C34.2916 0.844289 37.1715 3.07064 38.065 6.25795C38.181 6.67049 38.2564 7.09494 38.3506 7.51343V32.16C38.3278 32.2284 38.2931 32.2949 38.2841 32.3643C37.8756 35.4415 35.6472 37.9128 32.6245 38.6328C32.3032 38.7092 31.979 38.7726 31.6567 38.8411H6.96347C6.89504 38.8182 6.8286 38.7865 6.75819 38.7746C3.59567 38.248 1.52303 36.461 0.555139 33.4115C0.426219 33.0049 0.362751 32.5775 0.269531 32.16ZM25.5875 11.4891L25.6391 11.6091C25.4903 11.739 25.3336 11.861 25.1938 11.9999C23.6497 13.537 22.1047 15.0741 20.5675 16.6182C19.7771 17.4115 20.0548 18.6621 21.0902 18.9744C21.6653 19.148 22.1542 18.9735 22.5767 18.55C24.1585 16.9623 25.7481 15.3835 27.3289 13.7948C27.4182 13.7046 27.4509 13.5578 27.5104 13.4368L27.68 13.5677C27.68 13.7006 27.68 13.8335 27.68 13.9654C27.6819 15.1158 27.6631 16.2661 27.6929 17.4165C27.7127 18.2049 28.3315 18.7583 29.0971 18.7464C29.8587 18.7354 30.4617 18.1513 30.4646 17.3719C30.4746 14.9353 30.4755 12.4987 30.4636 10.0621C30.4597 9.30741 29.8666 8.71041 29.1149 8.70644C26.6486 8.69355 24.1832 8.69652 21.7169 8.70644C21.106 8.70843 20.5923 9.1289 20.4267 9.7021C20.156 10.6333 20.8055 11.4643 21.8508 11.4842C22.9654 11.505 24.0811 11.4901 25.1968 11.4901C25.3277 11.4901 25.4586 11.4901 25.5905 11.4901L25.5875 11.4891ZM10.9421 26.2039C10.9421 25.9669 10.9421 25.833 10.9421 25.6991C10.9412 24.5617 10.958 23.4232 10.9322 22.2867C10.9134 21.4755 10.3005 20.9112 9.52006 20.9251C8.74356 20.939 8.15747 21.533 8.15548 22.3393C8.14953 24.7501 8.14854 27.1619 8.15548 29.5727C8.15846 30.366 8.7505 30.964 9.54286 30.967C11.9834 30.9769 14.424 30.9819 16.8636 30.9561C17.1611 30.9531 17.4943 30.8073 17.7432 30.6328C18.2142 30.3016 18.362 29.6828 18.1795 29.1344C17.9921 28.5711 17.4893 28.2012 16.8467 28.1952C15.6943 28.1843 14.543 28.1922 13.3906 28.1913C13.2647 28.1913 13.1387 28.1913 12.9245 28.1913C13.0941 28.0147 13.1844 27.9156 13.2796 27.8204C14.5489 26.552 15.8193 25.2846 17.0897 24.0162C17.4397 23.6662 17.8037 23.328 18.1359 22.962C18.835 22.1915 18.5038 20.9757 17.5161 20.6911C16.9568 20.5294 16.4738 20.6891 16.0603 21.1036C14.4785 22.6903 12.8918 24.2711 11.3061 25.8528C11.2109 25.948 11.1117 26.0383 10.9402 26.2009L10.9421 26.2039Z" fill="#0076bf"/>
</svg>
