<svg viewBox="0 0 39 39" fill="none" xmlns="http://www.w3.org/2000/svg">
<path d="M38.704 16.1386C37.4895 8.79212 31.8638 2.61157 24.6452 0.683648C13.8859 -2.18942 2.94662 4.25361 0.548215 15.1232C-1.19617 23.0272 1.24902 29.6829 7.50237 34.8369C10.5273 37.3305 14.0853 38.6276 17.9972 38.9379C18.0958 38.9461 18.1925 38.9796 18.2901 39.001H20.7272C21.4402 38.9033 22.1583 38.8311 22.8662 38.7049C27.4016 37.8982 31.1965 35.7535 34.2194 32.2833C37.0308 29.0562 38.5962 25.2858 38.9379 21.0138C38.9461 20.9141 38.9796 20.8175 39.001 20.7198V18.2822C38.9034 17.568 38.822 16.8507 38.705 16.1396L38.704 16.1386ZM18.8088 30.5171C17.5496 30.5069 16.504 29.4499 16.4938 28.1741C16.4826 26.8617 17.511 25.7884 18.7905 25.7762C20.1047 25.7639 21.1788 26.821 21.1828 28.1324C21.1869 29.4377 20.1026 30.5263 18.8088 30.5161V30.5171ZM25.0988 15.4427C24.4661 16.6167 23.5568 17.5476 22.5336 18.3788C22.2508 18.6088 21.9681 18.8407 21.7006 19.089C21.0079 19.7319 20.66 20.5357 20.6244 21.4777C20.6143 21.7514 20.6163 22.0261 20.6102 22.2998C20.5939 23.0242 20.2684 23.4403 19.5503 23.5654C19.1801 23.6295 18.7915 23.6458 18.4172 23.6142C17.6147 23.5481 17.2313 23.1808 17.1529 22.3781C16.9322 20.1328 17.4988 18.1876 19.355 16.7449C19.9073 16.3156 20.4535 15.8761 20.9631 15.3979C21.5093 14.8862 21.8765 14.2615 21.8938 13.4792C21.9111 12.6683 21.5571 12.0772 20.8441 11.7008C19.2615 10.8665 17.3401 11.3315 16.3219 12.7924C15.674 13.7223 15.0597 13.9268 14.1595 13.5107C13.3244 13.1251 12.9623 12.2664 13.2624 11.2745C13.6967 9.83696 14.7495 8.98338 16.0707 8.40958C17.0777 7.97211 18.1416 7.82358 19.2309 7.82459C20.4922 7.83273 21.7107 8.03722 22.8601 8.58559C25.6165 9.90004 26.5482 12.7507 25.0978 15.4417L25.0988 15.4427Z" fill="white"/>
</svg>
