<svg width="21" height="22" viewBox="0 0 21 22" fill="none" xmlns="http://www.w3.org/2000/svg">
<g clip-path="url(#clip0_32_459)">
<path d="M9.84375 0.93457H11.1562C11.5139 0.981328 11.8736 1.01578 12.2284 1.07648C14.2004 1.41363 15.9456 2.23764 17.4398 3.56736C19.2667 5.19322 20.4094 7.21242 20.8388 9.62537C20.9069 10.0072 20.9471 10.3936 21 10.7783V12.0908C20.9885 12.1437 20.9701 12.1958 20.966 12.2491C20.8421 13.8688 20.3778 15.3856 19.5321 16.7715C17.8656 19.5019 15.4584 21.1807 12.308 21.7742C11.9273 21.846 11.5406 21.8821 11.1562 21.935H9.84375C9.5874 21.9034 9.33064 21.8759 9.07553 21.8394C6.98578 21.54 5.13926 20.7033 3.56098 19.3014C1.73783 17.6812 0.599238 15.667 0.163652 13.2639C0.0931055 12.8759 0.0537305 12.4821 0 12.0908V10.7783C0.0459375 10.4276 0.0803906 10.0745 0.139453 9.72586C0.511055 7.54178 1.46918 5.65178 3.0249 4.07473C4.59539 2.48332 6.48539 1.48377 8.69162 1.09576C9.07348 1.0285 9.45943 0.98748 9.84375 0.93457ZM9.62965 9.01834H9.62842C9.62842 9.92725 9.63539 10.8366 9.62473 11.7455C9.62063 12.0834 9.73219 12.3468 9.97172 12.5846C11.3687 13.9718 12.7579 15.3663 14.1504 16.758C14.2131 16.8207 14.2755 16.8851 14.3452 16.9393C14.8251 17.3096 15.5322 17.0857 15.7078 16.5062C15.8185 16.1411 15.7049 15.838 15.4416 15.5751C14.1303 14.2667 12.8223 12.955 11.5094 11.6483C11.4097 11.549 11.3671 11.4506 11.3683 11.3091C11.3745 10.3522 11.3716 9.39527 11.3716 8.43838C11.3716 7.7001 11.3695 6.96182 11.3724 6.22354C11.3736 5.94791 11.2871 5.71125 11.0775 5.53119C10.8039 5.29576 10.4873 5.24449 10.1587 5.38395C9.82078 5.52709 9.63375 5.79656 9.63129 6.16857C9.62596 7.1185 9.62965 8.06883 9.62965 9.01875V9.01834Z" fill="#AEAEAE"/>
</g>
<defs>
<clipPath id="clip0_32_459">
<rect width="21" height="21" fill="white" transform="translate(0 0.93457)"/>
</clipPath>
</defs>
</svg>
