<svg width="19" height="19" viewBox="0 0 19 19" fill="none" xmlns="http://www.w3.org/2000/svg">
<path d="M10.1751 19H8.83995C8.62746 18.9725 8.41348 18.9487 8.20174 18.916C5.68531 18.5326 3.60649 17.3639 2.04478 15.3547C0.191082 12.9704 -0.414435 10.2665 0.278009 7.32636C0.965995 4.40554 2.72014 2.28346 5.39927 0.950481C7.19279 0.0581106 9.10295 -0.18783 11.0763 0.136871C12.8401 0.427393 14.4025 1.17116 15.7443 2.35405C17.4086 3.82078 18.4539 5.64564 18.8514 7.83385C18.9116 8.16672 18.951 8.50257 19 8.83767V10.1729C18.9725 10.3854 18.9473 10.5986 18.916 10.8111C18.6404 12.691 17.8878 14.3554 16.627 15.7768C15.1656 17.424 13.3483 18.4568 11.1773 18.8521C10.8452 18.9123 10.5094 18.951 10.1758 19H10.1751ZM8.6178 11.0073C8.54796 10.9159 8.51527 10.8624 8.47218 10.8193C7.86146 10.2071 7.24851 9.59704 6.63928 8.9833C6.41639 8.75891 6.15338 8.66603 5.84728 8.74702C5.24251 8.90752 5.06196 9.62899 5.51443 10.086C6.32724 10.907 7.14673 11.7213 7.96325 12.5379C8.41051 12.9852 8.82806 12.9837 9.27829 12.5327C10.9247 10.8862 12.5711 9.2389 14.2175 7.59162C14.2874 7.52178 14.3572 7.4497 14.4122 7.36946C14.6321 7.04624 14.5808 6.62495 14.2948 6.35895C13.9724 6.05951 13.5028 6.08106 13.167 6.41616C11.7078 7.87471 10.2494 9.33401 8.79091 10.7941C8.7389 10.8461 8.6973 10.9092 8.6178 11.008V11.0073Z" fill="#808080"/>
</svg>
